<?xml version="1.0" standalone="no"?>
<!DOCTYPE svg PUBLIC "-//W3C//DTD SVG 20010904//EN"
 "http://www.w3.org/TR/2001/REC-SVG-20010904/DTD/svg10.dtd">
<svg version="1.0" xmlns="http://www.w3.org/2000/svg"
 width="512.000000pt" height="512.000000pt" viewBox="0 0 512.000000 512.000000"
 preserveAspectRatio="xMidYMid meet">

<g transform="translate(0.000000,512.000000) scale(0.100000,-0.100000)"
fill="#000000" stroke="none">
<path d="M316 5109 c-113 -27 -224 -121 -279 -237 l-32 -67 -3 -829 c-3 -905
-3 -896 55 -995 39 -66 110 -130 183 -165 l65 -31 870 0 870 0 60 29 c77 38
163 124 201 201 l29 60 0 870 0 870 -32 67 c-53 112 -148 191 -268 222 -51 14
-167 16 -870 15 -448 -1 -827 -5 -849 -10z"/>
<path d="M3080 5104 c-115 -31 -211 -112 -263 -222 l-32 -67 0 -870 0 -870 29
-60 c38 -77 124 -163 201 -201 l60 -29 870 0 870 0 67 32 c113 53 192 149 223
270 14 53 15 164 13 890 l-3 829 -38 76 c-58 118 -159 200 -279 228 -27 6
-353 9 -853 9 -681 0 -819 -3 -865 -15z"/>
<path d="M295 2326 c-143 -46 -244 -151 -280 -293 -14 -53 -15 -164 -13 -889
l3 -829 32 -67 c44 -94 109 -160 202 -206 l75 -37 829 -3 c726 -2 837 -1 890
13 121 31 217 110 270 223 l32 67 0 870 0 870 -29 60 c-38 77 -124 163 -201
201 l-60 29 -855 2 c-671 1 -864 -1 -895 -11z"/>
<path d="M3053 2321 c-104 -38 -189 -116 -241 -221 l-27 -55 0 -870 0 -870 32
-67 c53 -113 149 -192 270 -223 53 -14 164 -15 890 -13 l829 3 75 37 c93 46
158 112 202 206 l32 67 3 829 c2 725 1 836 -13 889 -31 121 -110 217 -223 270
l-67 32 -855 2 c-814 2 -857 2 -907 -16z"/>
</g>
</svg>
