<?xml version="1.0" standalone="no"?>
<!DOCTYPE svg PUBLIC "-//W3C//DTD SVG 20010904//EN"
 "http://www.w3.org/TR/2001/REC-SVG-20010904/DTD/svg10.dtd">
<svg version="1.0" xmlns="http://www.w3.org/2000/svg"
 width="48.000000pt" height="48.000000pt" viewBox="0 0 48.000000 48.000000"
 preserveAspectRatio="xMidYMid meet">

<g transform="translate(0.000000,48.000000) scale(0.100000,-0.100000)"
fill="#000000" stroke="none">
<path d="M25 447 c-3 -7 -4 -105 -3 -217 l3 -205 215 0 215 0 0 215 0 215
-213 3 c-167 2 -214 0 -217 -11z m235 -137 l0 -50 50 0 c43 0 50 -3 50 -20 0
-17 -7 -20 -50 -20 l-50 0 0 -50 c0 -43 -3 -50 -20 -50 -17 0 -20 7 -20 50 l0
50 -50 0 c-43 0 -50 3 -50 20 0 17 7 20 50 20 l50 0 0 50 c0 43 3 50 20 50 17
0 20 -7 20 -50z"/>
</g>
</svg>
