<svg xmlns="http://www.w3.org/2000/svg" fill="none" viewBox="0 0 14 14" id="Order-History--Streamline-Flex.svg" height="14" width="14"><desc>Order History Streamline Icon: https://streamlinehq.com</desc><g id="order-history--order-history-shopping-list-transaction-payment-purchases"><path id="Union" fill="#000000" fill-rule="evenodd" d="M8.00019 0C6.63024 0 5.52277 0.0447781 4.37683 0.130174 3.16352 0.22059 2.20808 1.19438 2.13549 2.40709c-0.06856 1.14536 -0.112 2.32397 -0.12817 3.52806 0.48045 -0.12752 0.98412 -0.18515 1.49287 -0.18515 1.28134 0 2.53046 0.36559 3.45744 1.29256 0.92698 0.92698 1.29256 2.1761 1.29256 3.45744 0 1.2813 -0.36558 2.5305 -1.29256 3.4574l-0.03289 0.0326c0.34285 0.0066 0.69925 0.01 1.07545 0.01 1.36996 0 2.47741 -0.0448 3.62341 -0.1302 1.2133 -0.0904 2.1687 -1.0642 2.2413 -2.2769 0.0886 -1.481 0.1353 -3.01754 0.1353 -4.5929 0 -0.45641 -0.0039 -0.90955 -0.0116 -1.35902 -0.0142 -0.82593 -0.2613 -1.64234 -0.7464 -2.32856 -0.7773 -1.0994 -1.4723 -1.86486 -2.5282 -2.749521C10.2982 0.21447 9.77673 0.0257788 9.24207 0.0135622 8.84807 0.00455946 8.43737 0 8.00019 0Zm2.65601 4.5332c0.3452 0 0.625 -0.27982 0.625 -0.625 0 -0.34517 -0.2798 -0.625 -0.625 -0.625H5.6495c-0.34518 0 -0.625 0.27983 -0.625 0.625 0 0.34518 0.27982 0.625 0.625 0.625h5.0067Zm0.625 1.96582c0 0.34518 -0.2798 0.625 -0.625 0.625H8.05575c-0.34518 0 -0.625 -0.27982 -0.625 -0.625 0 -0.34517 0.27982 -0.625 0.625 -0.625h2.60045c0.3452 0 0.625 0.27983 0.625 0.625ZM3.5 7c-1.05203 0 -1.94454 0.29743 -2.573553 0.92645C0.297432 8.55546 0 9.44797 0 10.5c0 1.052 0.297432 1.9445 0.926447 2.5736C1.55546 13.7026 2.44797 14 3.5 14s1.94454 -0.2974 2.57355 -0.9264C6.70257 12.4445 7 11.552 7 10.5c0 -1.05203 -0.29743 -1.94454 -0.92645 -2.57355C5.44454 7.29743 4.55203 7 3.5 7Zm1.22496 2.27485c0.24408 0.24408 0.24408 0.63981 0 0.88385l-0.75665 0.7567c-0.24408 0.2441 -0.63981 0.2441 -0.88388 0 -0.24408 -0.2441 -0.24408 -0.6398 0 -0.8839l0.75665 -0.75665c0.24407 -0.24407 0.6398 -0.24407 0.88388 0Z" clip-rule="evenodd" stroke-width="1"></path></g></svg>