<svg xmlns="http://www.w3.org/2000/svg" viewBox="0 0 48 48" id="Archive-Folder--Streamline-Nova.svg" height="48" width="48"><desc>Archive Folder Streamline Icon: https://streamlinehq.com</desc><path d="M12.24 0.48H2.832C1.533 0.48 0.48 1.533 0.48 2.832V45.168C0.48 46.467 1.533 47.52 2.832 47.52H12.24C13.539 47.52 14.592 46.467 14.592 45.168V2.832C14.592 1.533 13.539 0.48 12.24 0.48ZM9.888 24H5.184V5.184H9.888ZM28.704 9.888H19.296C17.997 9.888 16.944 10.941 16.944 12.24V45.168C16.944 46.467 17.997 47.52 19.296 47.52H28.704C30.003 47.52 31.056 46.467 31.056 45.168V12.24C31.056 10.941 30.003 9.888 28.704 9.888ZM26.352 33.408H21.648V14.592H26.352ZM45.168 5.184H35.76C34.461 5.184 33.408 6.237 33.408 7.536V45.168C33.408 46.467 34.461 47.52 35.76 47.52H45.168C46.467 47.52 47.52 46.467 47.52 45.168V7.536C47.52 6.237 46.467 5.184 45.168 5.184ZM42.816 28.704H38.112V9.888H42.816Z" fill="#000000" stroke-width="1"></path></svg>