<?xml version="1.0" standalone="no"?>
<!DOCTYPE svg PUBLIC "-//W3C//DTD SVG 20010904//EN"
 "http://www.w3.org/TR/2001/REC-SVG-20010904/DTD/svg10.dtd">
<svg version="1.0" xmlns="http://www.w3.org/2000/svg"
 width="512.000000pt" height="512.000000pt" viewBox="0 0 512.000000 512.000000"
 preserveAspectRatio="xMidYMid meet">

<g transform="translate(0.000000,512.000000) scale(0.100000,-0.100000)"
fill="#000000" stroke="none">
<path d="M880 4867 c-49 -16 -133 -102 -148 -153 -9 -30 -12 -169 -12 -498 l0
-456 640 0 640 0 0 400 0 400 960 0 960 0 0 -640 0 -640 -560 0 -560 0 0 -160
0 -160 560 0 560 0 0 -80 0 -80 -560 0 -560 0 0 -80 0 -80 240 0 240 0 0 -80
0 -80 -240 0 -240 0 0 -80 0 -80 560 0 560 0 0 -80 0 -80 -560 0 -560 0 0 -80
0 -80 240 0 240 0 0 -80 0 -80 -240 0 -240 0 0 -80 0 -80 560 0 560 0 0 -560
0 -560 -880 0 -880 0 0 400 0 400 -209 0 -209 0 -62 -252 c-34 -139 -72 -271
-84 -293 -67 -124 -245 -124 -312 0 -12 22 -50 154 -84 293 l-62 252 -209 0
-209 0 0 -456 c0 -329 3 -468 12 -498 16 -55 99 -138 154 -154 32 -9 435 -12
1736 -12 l1694 0 -35 72 -36 72 -5 2197 -5 2198 -21 27 c-11 15 -33 37 -48 48
-27 21 -28 21 -1639 23 -1155 1 -1622 -2 -1647 -10z m3040 -2307 l0 -80 -240
0 -240 0 0 80 0 80 240 0 240 0 0 -80z m0 -640 l0 -80 -240 0 -240 0 0 80 0
80 240 0 240 0 0 -80z"/>
<path d="M2160 4081 l0 -319 203 -4 202 -3 63 -34 c35 -19 74 -48 88 -64 38
-45 71 -117 79 -170 l7 -47 479 0 479 0 0 480 0 480 -800 0 -800 0 0 -319z"/>
<path d="M4400 2104 c0 -1272 3 -1666 12 -1698 26 -86 136 -166 228 -166 92 0
202 80 228 166 9 32 12 426 12 1698 l0 1656 -80 0 -80 0 0 -1520 0 -1520 -80
0 -80 0 0 1520 0 1520 -80 0 -80 0 0 -1656z"/>
<path d="M335 3586 c-41 -18 -83 -69 -90 -109 -3 -18 -4 -442 -3 -944 3 -903
3 -912 24 -939 11 -15 33 -37 48 -48 27 -20 42 -21 489 -26 l461 -5 77 -309
c42 -169 82 -313 88 -319 8 -8 14 -8 22 0 6 6 46 150 88 319 l77 309 461 5
c447 5 462 6 489 26 15 11 37 33 48 48 21 27 21 34 21 966 0 932 0 939 -21
966 -11 15 -33 37 -48 48 -27 21 -34 21 -1114 23 -888 2 -1093 0 -1117 -11z
m1271 -172 c15 -11 37 -33 48 -48 21 -27 21 -38 21 -486 0 -448 0 -459 -21
-486 -47 -64 -63 -69 -214 -69 -151 0 -167 5 -214 69 -20 27 -21 41 -24 459
-2 238 0 446 3 464 3 18 18 47 32 64 44 52 73 59 215 57 110 -3 130 -6 154
-24z m-92 -1266 c55 -16 138 -99 154 -154 28 -94 8 -169 -63 -239 -101 -102
-229 -102 -330 0 -102 101 -102 229 0 330 70 71 145 90 239 63z"/>
<path d="M1360 2880 l0 -400 80 0 80 0 0 400 0 400 -80 0 -80 0 0 -400z"/>
<path d="M1385 1975 c-50 -49 -15 -135 55 -135 19 0 40 9 55 25 16 15 25 36
25 55 0 19 -9 40 -25 55 -15 16 -36 25 -55 25 -19 0 -40 -9 -55 -25z"/>
<path d="M2750 1512 c0 -20 -90 -97 -140 -121 -47 -22 -72 -26 -172 -29 l-118
-4 0 -319 0 -319 720 0 720 0 0 400 0 400 -505 0 c-278 0 -505 -4 -505 -8z"/>
</g>
</svg>
