<?xml version="1.0" standalone="no"?>
<!DOCTYPE svg PUBLIC "-//W3C//DTD SVG 20010904//EN"
 "http://www.w3.org/TR/2001/REC-SVG-20010904/DTD/svg10.dtd">
<svg version="1.0" xmlns="http://www.w3.org/2000/svg"
 width="32768.000000pt" height="4682.000000pt" viewBox="0 0 32768.000000 4682.000000"
 preserveAspectRatio="xMidYMid meet">

<g transform="translate(0.000000,4682.000000) scale(0.100000,-0.100000)"
fill="#000000" stroke="none">
<path d="M45308 43803 l-248 -3 0 -74 0 -73 -377 -6 c-207 -4 -576 -7 -820 -7
l-443 0 0 -80 0 -80 -1150 0 -1150 0 0 -80 0 -80 -327 0 c-181 0 -439 -3 -575
-7 l-248 -6 0 -72 0 -72 -242 -6 c-133 -4 -317 -7 -410 -7 l-168 0 0 -80 0
-80 -487 -2 -488 -3 -3 -76 -3 -77 -489 -7 -490 -8 0 -78 0 -79 -330 0 -330 0
0 -80 0 -80 -277 0 c-153 0 -335 -3 -405 -7 l-128 -6 0 -72 0 -72 -127 -6
c-71 -4 -219 -7 -330 -7 l-203 0 0 -80 0 -80 -330 0 -330 0 0 -80 0 -80 -197
0 c-109 0 -255 -3 -325 -7 l-128 -6 0 -72 0 -72 -122 -6 c-66 -4 -215 -7 -330
-7 l-208 0 0 -80 0 -80 -203 0 c-112 0 -259 -3 -325 -7 l-122 -6 0 -72 0 -73
-165 -7 -165 -7 0 -73 0 -72 -122 -6 c-66 -4 -177 -7 -245 -7 l-123 0 0 -80 0
-80 -203 0 c-112 0 -259 -3 -325 -7 l-122 -6 0 -72 0 -72 -127 -6 c-71 -4
-181 -7 -245 -7 l-118 0 0 -80 0 -80 -170 0 -170 0 0 -80 0 -80 -117 0 c-65 0
-175 -3 -245 -7 l-128 -6 0 -72 0 -72 -112 -6 c-62 -4 -173 -7 -245 -7 l-133
0 0 -80 0 -80 -123 0 c-68 0 -179 -3 -245 -7 l-122 -6 0 -72 0 -73 -165 -7
-165 -7 0 -79 0 -79 -240 0 -240 0 0 -78 0 -79 -137 -6 c-75 -4 -185 -7 -244
-7 l-108 0 -3 -77 -3 -78 -167 -3 -168 -2 0 -80 0 -80 -160 0 -160 0 0 -79 0
-79 -170 -7 -170 -7 0 -79 0 -79 -240 0 -240 0 0 -79 0 -79 -165 -7 -164 -7
-3 -77 -3 -76 -162 -3 -163 -2 0 -80 0 -80 -160 0 -160 0 0 -79 0 -79 -165 -7
-165 -7 0 -79 0 -79 -165 0 -165 0 0 -79 0 -79 -165 -7 -165 -7 0 -79 0 -79
-85 0 -85 0 0 -80 0 -80 -160 0 -160 0 0 -79 0 -79 -165 -7 -165 -7 0 -73 0
-73 -160 -7 -160 -7 0 -79 0 -79 -85 0 -85 0 0 -79 0 -79 -165 -7 -165 -7 0
-79 0 -79 -160 0 -160 0 0 -80 0 -80 -85 0 -85 0 0 -79 0 -79 -160 -7 -160 -7
0 -79 0 -79 -85 0 -85 0 0 -79 0 -79 -165 -7 -165 -7 0 -79 0 -79 -80 0 -80 0
0 -79 0 -79 -165 -7 -165 -7 0 -79 0 -79 -80 0 -80 0 0 -80 0 -80 -85 0 -85 0
0 -79 0 -79 -160 -7 -160 -7 0 -79 0 -79 -85 0 -85 0 0 -80 0 -80 -80 0 -80 0
0 -80 0 -79 -82 -3 -83 -3 -3 -82 -3 -83 -159 0 -159 0 -3 -82 -3 -83 -83 -3
-82 -3 0 -79 0 -80 -80 0 -80 0 0 -80 0 -80 -85 0 -85 0 0 -80 0 -80 -80 0
-80 0 0 -85 0 -85 -85 0 -85 0 0 -80 0 -80 -80 0 -80 0 0 -80 0 -79 -83 -3
-82 -3 -3 -82 -3 -83 -159 0 -160 0 0 -85 0 -85 -80 0 -80 0 0 -80 0 -80 -79
0 -79 0 -7 -160 -7 -160 -79 0 -78 0 -3 -82 -3 -83 -82 -3 -83 -3 0 -79 0 -80
-80 0 -80 0 0 -80 0 -80 -80 0 -80 0 0 -85 0 -85 -85 0 -85 0 0 -85 0 -85 -80
0 -80 0 0 -80 0 -80 -79 0 -79 0 -7 -160 -7 -159 -77 -3 -76 -3 -3 -82 -3 -83
-79 0 -79 0 -3 -82 -3 -83 -76 -3 -77 -3 -7 -159 -7 -160 -79 0 -79 0 0 -85 0
-85 -79 0 -79 0 -7 -160 -7 -160 -79 0 -79 0 0 -85 0 -85 -80 0 -80 0 0 -160
0 -160 -79 0 -79 0 -7 -165 -7 -165 -79 0 -79 0 0 -85 0 -85 -80 0 -80 0 0
-160 0 -160 -79 0 -79 0 -7 -165 -7 -165 -79 0 -79 0 0 -165 0 -165 -80 0 -80
0 -2 -162 -3 -163 -76 -3 -76 -3 -6 -121 c-4 -67 -7 -177 -7 -245 l0 -123 -80
0 -80 0 0 -165 0 -165 -80 0 -80 0 0 -117 c0 -65 -3 -175 -7 -245 l-6 -128
-79 0 -78 0 0 -325 0 -325 -80 0 -80 0 0 -282 c0 -156 -3 -340 -7 -410 l-6
-128 -72 0 -72 0 -6 -242 c-4 -133 -7 -353 -7 -490 l0 -248 -80 0 -80 0 0
-1150 0 -1150 80 0 80 0 0 -322 c0 -178 3 -434 7 -570 l6 -247 76 -3 76 -3 3
-327 2 -328 80 0 80 0 2 -327 3 -328 76 -3 76 -3 6 -121 c4 -67 7 -177 7 -245
l0 -123 80 0 80 0 0 -165 0 -165 80 0 80 0 0 -123 c0 -68 3 -179 7 -245 l6
-122 72 0 72 0 6 -122 c4 -66 7 -174 7 -240 l0 -118 80 0 80 0 0 -165 0 -165
79 0 79 0 7 -165 7 -165 79 0 79 0 0 -85 0 -85 80 0 80 0 0 -160 0 -160 79 0
79 0 7 -165 7 -165 79 0 79 0 0 -165 0 -165 85 0 85 0 0 -80 0 -79 78 -3 77
-3 3 -82 3 -83 79 0 80 0 0 -160 0 -159 83 -3 82 -3 3 -82 3 -83 79 0 80 0 0
-160 0 -159 83 -3 82 -3 3 -82 3 -83 79 0 80 0 0 -80 0 -80 80 0 80 0 0 -85 0
-85 80 0 79 0 3 -82 3 -83 77 -3 76 -3 7 -159 8 -160 83 0 84 0 0 -80 0 -80
80 0 80 0 0 -80 0 -80 80 0 80 0 0 -85 0 -85 80 0 80 0 0 -80 0 -79 83 -3 82
-3 3 -82 3 -83 79 0 80 0 0 -80 0 -79 83 -3 82 -3 3 -77 3 -77 77 -3 77 -3 3
-82 3 -83 84 0 85 0 0 -80 0 -80 80 0 80 0 0 -79 0 -79 160 -7 160 -7 0 -79 0
-78 83 -3 82 -3 3 -82 3 -83 79 0 80 0 0 -80 0 -80 85 0 85 0 0 -80 0 -80 80
0 80 0 0 -79 0 -79 160 -7 160 -7 0 -79 0 -79 85 0 85 0 0 -85 0 -85 85 0 85
0 0 -80 0 -80 80 0 80 0 0 -79 0 -79 165 -7 165 -7 0 -79 0 -79 80 0 80 0 0
-79 0 -78 160 -8 159 -7 3 -76 3 -77 82 -3 82 -3 3 -77 3 -77 163 -3 162 -2 0
-80 0 -80 80 0 80 0 0 -79 0 -79 165 -7 165 -7 0 -79 0 -79 85 0 85 0 0 -79 0
-79 160 -7 159 -7 3 -77 3 -76 83 -3 82 -3 0 -79 0 -80 163 -2 162 -3 3 -76 3
-77 159 -7 160 -7 0 -79 0 -79 165 0 165 0 0 -80 0 -79 83 -3 82 -3 3 -77 3
-76 159 -7 160 -8 0 -78 0 -79 165 0 165 0 0 -79 0 -79 165 -7 165 -7 0 -79 0
-79 160 0 160 0 0 -79 0 -79 165 -7 164 -7 3 -77 3 -76 163 -3 162 -2 0 -80 0
-80 165 0 165 0 0 -80 0 -80 163 -2 162 -3 3 -77 3 -76 159 -7 160 -8 0 -78 0
-79 165 0 165 0 0 -80 0 -80 123 0 c68 0 178 -3 245 -7 l121 -6 3 -76 3 -76
163 -3 162 -2 0 -80 0 -80 165 0 165 0 0 -78 0 -79 122 -6 c66 -4 177 -7 245
-7 l123 0 0 -80 0 -80 245 0 245 0 0 -80 0 -80 123 0 c68 0 179 -3 245 -7
l122 -6 0 -79 0 -78 245 0 245 0 0 -80 0 -80 165 0 165 0 0 -80 0 -80 118 0
c64 0 174 -3 245 -7 l127 -6 0 -79 0 -78 325 0 325 0 0 -79 0 -79 170 -7 170
-7 0 -73 0 -72 122 -6 c66 -4 177 -7 245 -7 l123 0 0 -80 0 -80 325 0 325 0 0
-79 0 -79 330 -7 330 -7 0 -79 0 -79 325 0 325 0 0 -80 0 -80 248 -2 247 -3 3
-76 3 -76 121 -6 c67 -4 249 -7 405 -7 l283 0 0 -80 0 -80 288 0 c159 0 344
-3 410 -7 l122 -6 0 -74 0 -73 203 0 c111 0 259 -3 330 -7 l127 -6 0 -72 0
-72 122 -6 c66 -4 251 -7 410 -7 l288 0 0 -80 0 -80 283 0 c155 0 339 -3 410
-7 l127 -6 0 -72 0 -72 368 -6 c202 -4 532 -7 735 -7 l367 0 0 -80 0 -80 815
0 815 0 0 -80 0 -80 253 0 c140 0 362 -3 495 -7 l242 -6 0 -72 0 -72 248 -6
c136 -4 577 -7 980 -7 l732 0 0 -80 0 -80 4425 0 4425 0 0 80 0 80 538 0 c295
0 702 3 905 7 l367 6 0 72 0 72 242 6 c133 4 389 7 570 7 l328 0 0 80 0 80
900 0 900 0 0 80 0 80 213 0 c116 0 377 3 580 7 l367 6 0 72 0 72 122 6 c66 4
287 7 490 7 l368 0 0 80 0 80 283 0 c156 0 339 3 405 7 l122 6 0 72 0 72 128
6 c70 4 218 7 330 7 l202 0 0 73 0 74 122 6 c66 4 251 7 410 7 l288 0 0 80 0
80 208 0 c115 0 264 3 330 7 l122 6 0 72 0 72 122 6 c66 4 213 7 325 7 l203 0
0 80 0 80 248 2 247 3 3 76 3 77 324 7 325 7 0 79 0 79 325 0 325 0 0 80 0 80
123 0 c68 0 179 3 245 7 l122 6 0 72 0 72 128 6 c70 4 180 7 245 7 l117 0 0
80 0 80 250 0 250 0 0 80 0 80 118 0 c64 0 174 3 245 7 l127 6 0 79 0 78 165
0 165 0 0 80 0 80 245 0 245 0 0 78 0 79 122 6 c66 4 177 7 245 7 l123 0 0 80
0 80 245 0 245 0 0 80 0 80 165 0 165 0 0 78 0 79 122 6 c66 4 177 7 245 7
l123 0 0 79 0 79 165 7 165 7 0 73 0 73 165 7 165 7 0 73 0 72 122 6 c66 4
177 7 245 7 l123 0 0 79 0 79 160 7 159 7 3 77 3 76 163 3 162 2 0 80 0 80
165 0 165 0 0 80 0 80 163 2 162 3 3 76 3 77 164 7 165 7 0 79 0 79 160 0 160
0 0 79 0 79 165 7 165 7 0 79 0 79 165 0 165 0 0 79 0 78 160 8 159 7 3 76 3
77 83 3 82 3 0 79 0 80 165 0 165 0 0 79 0 79 165 7 165 7 0 79 0 79 160 0
160 0 0 80 0 79 83 3 82 3 3 76 3 77 159 7 160 7 0 79 0 79 85 0 85 0 0 79 0
79 160 7 159 7 3 77 3 76 83 3 82 3 0 79 0 80 165 0 165 0 0 80 0 79 83 3 82
3 3 77 3 76 159 7 160 8 0 78 0 78 83 3 82 3 3 77 3 76 159 7 160 8 0 78 0 79
80 0 80 0 0 80 0 80 85 0 85 0 0 85 0 85 85 0 85 0 0 80 0 80 80 0 80 0 0 79
0 79 160 7 160 7 0 79 0 79 85 0 85 0 0 80 0 80 80 0 80 0 0 85 0 85 85 0 85
0 0 80 0 80 80 0 80 0 0 80 0 79 83 3 82 3 3 83 3 82 79 0 80 0 0 80 0 79 83
3 82 3 3 77 3 77 77 3 77 3 3 83 3 82 79 0 80 0 0 80 0 79 83 3 82 3 3 77 3
77 77 3 77 3 3 83 3 82 79 0 80 0 0 80 0 80 80 0 80 0 0 85 0 85 85 0 85 0 0
80 0 80 80 0 80 0 0 85 0 85 80 0 79 0 3 83 3 82 83 3 82 3 0 159 0 160 85 0
85 0 0 80 0 80 80 0 80 0 0 85 0 85 80 0 80 0 0 80 0 80 79 0 79 0 7 165 7
165 79 0 79 0 0 80 0 80 79 0 79 0 7 165 7 165 79 0 79 0 0 85 0 85 80 0 80 0
0 160 0 160 79 0 79 0 7 165 7 165 79 0 79 0 0 85 0 85 80 0 80 0 0 160 0 160
79 0 79 0 7 165 7 165 79 0 79 0 0 165 0 165 80 0 80 0 2 163 3 162 76 3 76 3
6 121 c4 67 7 174 7 240 l0 118 80 0 80 0 2 168 3 167 78 3 77 3 0 117 c0 64
3 174 7 245 l6 127 72 0 72 0 6 122 c4 66 7 213 7 325 l0 203 80 0 80 0 0 283
c0 155 3 339 7 410 l6 127 72 0 72 0 6 248 c4 136 7 356 7 490 l0 242 80 0 80
0 0 1065 0 1065 -80 0 -80 0 0 248 c0 136 -3 358 -7 495 l-6 247 -72 0 -72 0
-6 122 c-4 66 -7 249 -7 405 l0 283 -80 0 -80 0 -2 328 -3 327 -77 3 -78 3 0
117 c0 64 -3 174 -7 244 l-6 127 -76 3 -76 3 -3 243 -2 242 -79 0 -79 0 -7
165 -7 165 -73 0 -73 0 -7 165 -7 165 -79 0 -79 0 0 245 0 245 -79 0 -79 0 -7
160 -7 159 -77 3 -76 3 -3 83 -3 82 -78 0 -79 0 -7 165 -7 165 -79 0 -79 0 0
160 0 160 -80 0 -80 0 0 165 0 164 -82 3 -83 3 -3 83 -3 82 -79 0 -80 0 0 80
0 80 -80 0 -80 0 -2 163 -3 162 -82 3 -83 3 0 79 0 79 -77 3 -78 3 -3 163 -2
162 -80 0 -80 0 0 80 0 79 -82 3 -83 3 -3 83 -3 82 -79 0 -80 0 0 85 0 85 -79
0 -79 0 -7 160 -7 160 -79 0 -79 0 0 80 0 80 -80 0 -79 0 -3 83 -3 82 -82 3
-83 3 0 79 0 80 -80 0 -80 0 0 85 0 85 -80 0 -80 0 0 80 0 80 -85 0 -85 0 0
80 0 80 -80 0 -80 0 0 85 0 85 -80 0 -80 0 0 80 0 80 -85 0 -85 0 0 85 0 85
-80 0 -80 0 0 80 0 80 -85 0 -85 0 0 80 0 80 -80 0 -80 0 0 80 0 79 -82 3 -83
3 -3 83 -3 82 -79 0 -80 0 0 79 0 79 -160 7 -160 7 0 79 0 79 -85 0 -85 0 0
80 0 80 -80 0 -80 0 0 80 0 79 -82 3 -83 3 -3 83 -3 82 -79 0 -80 0 0 79 0 79
-165 7 -165 7 0 79 0 79 -80 0 -80 0 0 80 0 80 -85 0 -85 0 0 79 0 79 -160 7
-160 7 0 79 0 79 -85 0 -85 0 0 80 0 79 -82 3 -83 3 -3 76 -3 77 -159 7 -160
7 0 79 0 79 -160 0 -160 0 0 80 0 80 -85 0 -84 0 -3 83 -3 82 -157 3 -158 3 0
79 0 79 -87 3 -88 3 -3 76 -3 77 -159 7 -160 7 0 79 0 79 -160 0 -160 0 0 80
0 80 -85 0 -85 0 0 79 0 79 -165 7 -165 7 0 79 0 79 -165 0 -165 0 0 79 0 79
-160 7 -159 7 -3 77 -3 76 -82 3 -83 3 0 79 0 80 -165 0 -165 0 0 78 0 79
-122 6 c-66 4 -174 7 -240 7 l-118 0 0 80 0 80 -165 0 -165 0 0 80 0 80 -85 0
-85 0 0 78 0 79 -122 6 c-66 4 -177 7 -245 7 l-123 0 0 80 0 80 -165 0 -165 0
0 79 0 79 -165 7 -165 7 0 73 0 72 -122 6 c-66 4 -174 7 -240 7 l-118 0 0 80
0 80 -52 0 c-29 0 -104 3 -165 7 l-113 6 0 72 0 72 -127 6 c-71 4 -181 7 -245
7 l-118 0 0 80 0 80 -170 0 -170 0 0 80 0 80 -162 2 -163 3 -3 76 -3 76 -121
6 c-67 4 -174 7 -240 7 l-118 0 0 80 0 80 -247 2 -248 3 -3 78 -3 77 -117 0
c-64 0 -174 3 -244 7 l-128 6 0 79 0 78 -245 0 -245 0 0 80 0 80 -117 0 c-65
0 -175 3 -245 7 l-128 6 0 72 0 72 -122 6 c-66 4 -177 7 -245 7 l-123 0 0 80
0 80 -247 2 -248 3 -3 78 -3 77 -118 0 c-65 0 -172 3 -239 7 l-121 6 -3 76 -3
76 -247 3 -248 2 0 80 0 80 -203 0 c-112 0 -259 3 -325 7 l-122 6 0 72 0 73
-330 7 -330 7 0 79 0 79 -325 0 -325 0 0 80 0 80 -208 0 c-115 0 -264 3 -330
7 l-122 6 0 72 0 72 -242 6 c-133 4 -315 7 -405 7 l-163 0 0 80 0 80 -330 0
-330 0 0 80 0 80 -282 0 c-156 0 -340 3 -410 7 l-128 6 0 72 0 72 -127 6 c-71
4 -293 7 -495 7 l-368 0 0 80 0 80 -243 0 c-134 0 -352 3 -485 7 l-242 6 0 72
0 72 -247 6 c-137 4 -398 7 -580 7 l-333 0 0 80 0 80 -1103 0 c-607 0 -1159 3
-1225 7 l-122 6 0 74 0 73 -363 0 c-200 0 -533 3 -740 7 l-377 6 0 72 0 72
-367 6 c-344 7 -6862 6 -7405 0z m6142 -403 l0 -80 853 0 c468 0 909 -3 980
-7 l127 -6 0 -74 0 -73 208 0 c115 0 371 -3 570 -7 l362 -6 0 -79 0 -78 458 0
c253 0 514 -3 580 -7 l122 -6 0 -74 0 -73 368 0 c202 0 532 -3 735 -7 l367 -6
0 -72 0 -72 128 -6 c70 -4 328 -7 575 -7 l447 0 0 -80 0 -80 328 -2 327 -3 3
-76 3 -76 241 -6 c133 -4 315 -7 405 -7 l163 0 0 -80 0 -80 330 0 330 0 0 -80
0 -80 203 0 c111 0 259 -3 330 -7 l127 -6 0 -72 0 -73 325 -7 325 -7 0 -79 0
-79 245 0 245 0 0 -79 0 -79 325 -7 324 -7 3 -77 3 -76 248 -3 247 -2 0 -80 0
-80 203 0 c112 0 259 -3 325 -7 l122 -6 0 -72 0 -72 122 -6 c66 -4 177 -7 245
-7 l123 0 0 -80 0 -80 245 0 245 0 0 -79 0 -79 170 -7 170 -7 0 -73 0 -72 113
-6 c61 -4 169 -7 240 -7 l127 0 0 -80 0 -80 165 0 165 0 0 -78 0 -79 128 -6
c70 -4 180 -7 245 -7 l117 0 0 -80 0 -80 165 0 165 0 0 -80 0 -80 165 0 165 0
0 -79 0 -79 165 -7 165 -7 0 -79 0 -79 128 0 c70 0 178 -3 240 -7 l112 -6 0
-72 0 -73 165 -7 164 -7 3 -77 3 -76 163 -3 162 -2 0 -79 0 -79 165 -7 165 -7
0 -79 0 -79 160 0 160 0 0 -80 0 -80 165 0 165 0 0 -79 0 -79 165 -7 165 -7 0
-79 0 -79 85 0 85 0 0 -80 0 -80 163 -2 162 -3 3 -76 3 -77 159 -7 160 -7 0
-79 0 -79 165 0 165 0 0 -80 0 -80 80 0 79 0 3 -82 3 -83 83 -3 82 -3 0 -79 0
-80 163 -2 162 -3 3 -77 3 -78 79 0 80 0 0 -79 0 -79 165 -7 165 -7 0 -79 0
-79 80 0 80 0 0 -79 0 -79 165 -7 165 -7 0 -79 0 -79 80 0 80 0 0 -80 0 -80
85 0 85 0 0 -79 0 -79 160 -7 160 -7 0 -79 0 -78 83 -3 82 -3 3 -82 3 -83 79
0 80 0 0 -80 0 -80 85 0 85 0 0 -80 0 -80 80 0 80 0 0 -79 0 -79 160 -7 160
-7 0 -79 0 -79 85 0 85 0 0 -80 0 -79 83 -3 82 -3 3 -82 3 -83 79 0 80 0 0
-80 0 -80 80 0 79 0 3 -82 3 -83 83 -3 82 -3 0 -79 0 -80 80 0 80 0 0 -80 0
-79 83 -3 82 -3 3 -82 3 -83 79 0 80 0 0 -80 0 -80 80 0 79 0 3 -82 3 -83 83
-3 82 -3 0 -79 0 -80 80 0 80 0 0 -80 0 -80 80 0 80 0 0 -85 0 -85 80 0 79 0
3 -82 3 -83 81 -3 82 -3 7 -154 7 -154 77 -3 76 -3 3 -82 3 -83 79 0 80 0 0
-85 0 -85 80 0 80 0 0 -80 0 -80 79 0 79 0 7 -160 7 -160 79 0 79 0 0 -85 0
-84 83 -3 82 -3 3 -82 3 -83 79 0 80 0 0 -160 0 -160 80 0 80 0 0 -85 0 -85
79 0 79 0 7 -160 7 -160 79 0 79 0 0 -85 0 -85 79 0 79 0 7 -160 7 -159 77 -3
76 -3 3 -82 3 -83 79 0 80 0 0 -165 0 -165 79 0 79 0 7 -165 7 -165 79 0 79 0
0 -160 0 -160 80 0 80 0 0 -165 0 -165 78 0 79 0 6 -122 c4 -66 7 -177 7 -245
l0 -123 80 0 80 0 0 -165 0 -165 80 0 80 0 0 -123 c0 -68 3 -178 7 -245 l6
-121 76 -3 76 -3 3 -242 2 -243 80 0 80 0 0 -208 c0 -115 3 -264 7 -330 l6
-122 72 0 72 0 6 -247 c4 -137 7 -357 7 -490 l0 -242 78 -3 77 -3 3 -1965 c2
-1081 0 -2038 -4 -2127 l-6 -163 -74 0 -74 0 0 -238 c0 -131 -3 -354 -7 -495
l-6 -257 -72 0 -72 0 -6 -122 c-4 -66 -7 -213 -7 -325 l0 -203 -80 0 -80 0 0
-123 c0 -68 -3 -179 -7 -245 l-6 -122 -72 0 -73 0 -7 -165 -7 -165 -79 0 -79
0 0 -245 0 -245 -80 0 -80 0 0 -123 c0 -68 -3 -178 -7 -245 l-6 -121 -76 -3
-76 -3 -3 -162 -2 -163 -80 0 -80 0 -2 -162 -3 -163 -77 -3 -77 -3 -3 -82 -3
-82 -82 -3 -83 -3 0 -159 0 -160 -80 0 -80 0 -2 -162 -3 -163 -76 -3 -77 -3
-7 -159 -7 -160 -79 0 -79 0 0 -85 0 -85 -79 0 -79 0 -7 -160 -7 -159 -77 -3
-76 -3 -3 -82 -3 -83 -79 0 -80 0 -2 -163 -3 -162 -77 -3 -78 -3 0 -79 0 -80
-85 0 -85 0 0 -85 0 -85 -79 0 -79 0 -7 -160 -7 -160 -79 0 -79 0 0 -85 0 -85
-80 0 -80 0 0 -80 0 -80 -79 0 -79 0 -7 -160 -7 -160 -79 0 -79 0 0 -85 0 -85
-85 0 -85 0 0 -80 0 -79 -77 -3 -78 -3 -3 -82 -3 -83 -79 0 -80 0 0 -80 0 -80
-80 0 -79 0 -3 -82 -3 -83 -82 -3 -83 -3 0 -79 0 -80 -80 0 -79 0 -3 -82 -3
-83 -82 -3 -83 -3 0 -79 0 -80 -80 0 -80 0 0 -80 0 -80 -80 0 -79 0 -3 -82 -3
-83 -82 -3 -83 -3 0 -79 0 -80 -80 0 -80 0 0 -80 0 -79 -82 -3 -83 -3 -3 -82
-3 -83 -79 0 -80 0 0 -80 0 -80 -85 0 -85 0 0 -79 0 -79 -160 -7 -160 -7 0
-79 0 -79 -80 0 -80 0 0 -80 0 -79 -82 -3 -83 -3 -3 -82 -3 -83 -84 0 -85 0 0
-79 0 -79 -160 -7 -160 -7 0 -79 0 -79 -80 0 -80 0 0 -80 0 -80 -85 0 -85 0 0
-79 0 -79 -160 -7 -159 -7 -3 -77 -3 -76 -82 -3 -83 -3 0 -79 0 -80 -160 0
-159 0 -3 -82 -3 -83 -82 -3 -83 -3 0 -79 0 -80 -160 0 -160 0 0 -80 0 -80
-85 0 -85 0 0 -79 0 -79 -165 -7 -165 -7 0 -79 0 -79 -160 0 -160 0 0 -80 0
-80 -85 0 -85 0 0 -79 0 -79 -165 -7 -165 -7 0 -78 0 -78 -160 -7 -159 -7 -3
-77 -3 -76 -82 -3 -83 -3 0 -73 0 -74 -165 -7 -165 -7 0 -79 0 -79 -162 -2
-163 -3 -3 -76 -3 -77 -159 -7 -160 -7 0 -79 0 -79 -165 0 -165 0 0 -79 0 -79
-165 -7 -165 -7 0 -73 0 -73 -165 -7 -165 -7 0 -79 0 -79 -165 0 -165 0 0 -78
0 -79 -122 -6 c-66 -4 -174 -7 -240 -7 l-118 0 0 -80 0 -80 -165 0 -165 0 0
-80 0 -80 -123 0 c-68 0 -179 -3 -245 -7 l-122 -6 0 -79 0 -78 -165 0 -165 0
0 -80 0 -80 -165 0 -165 0 0 -78 0 -79 -127 -6 c-71 -4 -181 -7 -245 -7 l-118
0 0 -80 0 -80 -245 0 -245 0 0 -80 0 -80 -123 0 c-68 0 -178 -3 -245 -7 l-121
-6 -3 -76 -3 -76 -162 -3 -163 -2 0 -80 0 -80 -250 0 -250 0 0 -79 0 -79 -325
-7 -325 -7 0 -79 0 -79 -245 0 -245 0 0 -80 0 -80 -203 0 c-112 0 -259 -3
-325 -7 l-122 -6 0 -72 0 -72 -127 -6 c-71 -4 -183 -7 -250 -7 l-123 0 0 -73
0 -74 -122 -6 c-66 -4 -215 -7 -330 -7 l-208 0 0 -80 0 -80 -203 0 c-112 0
-259 -3 -325 -7 l-122 -6 0 -72 0 -72 -122 -6 c-66 -4 -215 -7 -330 -7 l-208
0 0 -80 0 -80 -362 0 c-200 0 -420 -3 -490 -7 l-128 -6 0 -72 0 -72 -367 -6
c-203 -4 -459 -7 -570 -7 l-203 0 0 -80 0 -80 -415 0 -415 0 0 -80 0 -80 -157
0 c-87 0 -269 -3 -405 -7 l-248 -6 0 -72 0 -72 -247 -6 c-137 -4 -542 -7 -900
-7 l-653 0 0 -80 0 -80 -4750 0 -4750 0 0 80 0 80 -578 0 c-318 0 -687 3 -820
7 l-242 6 0 72 0 72 -247 6 c-137 4 -321 7 -410 7 l-163 0 0 80 0 80 -330 0
-330 0 0 80 0 80 -287 0 c-159 0 -453 3 -655 7 l-368 6 0 72 0 72 -122 6 c-66
4 -289 7 -495 7 l-373 0 0 80 0 80 -242 2 -243 3 -3 76 -3 77 -324 7 -325 7 0
79 0 79 -327 2 -328 3 -3 78 -3 77 -197 0 c-108 0 -254 3 -324 7 l-127 6 -3
76 -3 76 -247 3 -248 2 0 80 0 80 -242 2 -243 3 -3 76 -3 77 -324 7 -325 7 0
79 0 79 -245 0 -245 0 0 80 0 80 -123 0 c-68 0 -179 3 -245 7 l-122 6 0 73 0
72 -170 7 -170 8 0 78 0 79 -242 2 -243 3 -3 78 -3 77 -117 0 c-64 0 -174 3
-244 7 l-128 6 0 72 0 72 -112 6 c-62 4 -170 7 -240 7 l-128 0 0 80 0 80 -165
0 -165 0 0 78 0 79 -127 6 c-71 4 -181 7 -245 7 l-118 0 0 80 0 80 -165 0
-165 0 0 79 0 79 -165 7 -165 7 0 73 0 73 -165 7 -165 7 0 79 0 79 -165 0
-165 0 0 78 0 79 -122 6 c-66 4 -174 7 -240 7 l-118 0 0 80 0 80 -165 0 -165
0 0 79 0 79 -165 7 -165 7 0 79 0 79 -85 0 -85 0 0 80 0 80 -162 2 -163 3 -3
76 -3 77 -159 7 -160 7 0 79 0 79 -165 0 -165 0 0 80 0 79 -82 3 -83 3 -3 76
-3 77 -159 7 -160 7 0 79 0 79 -165 0 -165 0 0 80 0 79 -82 3 -83 3 -3 77 -3
76 -159 7 -160 8 0 78 0 78 -82 3 -83 3 -3 76 -3 77 -159 7 -160 7 0 79 0 79
-85 0 -85 0 0 79 0 79 -160 7 -160 7 0 79 0 79 -85 0 -85 0 0 80 0 80 -80 0
-80 0 0 79 0 79 -165 7 -165 7 0 79 0 79 -80 0 -80 0 0 80 0 80 -85 0 -85 0 0
79 0 79 -160 7 -160 7 0 79 0 79 -85 0 -85 0 0 80 0 80 -80 0 -80 0 0 85 0 85
-85 0 -85 0 0 79 0 79 -160 7 -160 7 0 79 0 79 -80 0 -80 0 0 80 0 80 -85 0
-85 0 0 85 0 85 -80 0 -79 0 -3 77 -3 78 -82 3 -83 3 0 79 0 80 -80 0 -79 0
-3 83 -3 82 -82 3 -83 3 0 79 0 80 -80 0 -80 0 0 80 0 80 -80 0 -79 0 -3 83
-3 82 -77 3 -78 3 0 79 0 80 -85 0 -85 0 0 85 0 85 -79 0 -79 0 -7 160 -7 160
-79 0 -79 0 0 80 0 80 -80 0 -80 0 0 85 0 85 -80 0 -79 0 -3 83 -3 82 -82 3
-83 3 0 159 0 160 -80 0 -79 0 -3 83 -3 82 -82 3 -83 3 0 79 0 80 -80 0 -80 0
0 160 0 159 -82 3 -83 3 -3 83 -3 82 -79 0 -80 0 0 160 0 160 -80 0 -80 0 0
85 0 85 -79 0 -79 0 -7 165 -7 165 -79 0 -79 0 -2 162 -3 163 -77 3 -77 3 -3
82 -3 82 -77 3 -76 3 -7 159 -8 160 -77 0 -78 0 -7 165 -7 165 -73 0 -73 0 -7
165 -7 165 -79 0 -79 0 0 240 0 240 -79 0 -79 0 -7 165 -7 164 -77 3 -76 3 -3
163 -2 162 -80 0 -80 0 -2 247 -3 248 -76 3 -77 3 -7 324 -7 325 -79 0 -79 0
0 410 0 410 -78 0 -79 0 -6 248 c-4 136 -7 356 -7 490 l0 242 -73 0 -74 0 -6
122 c-9 158 -9 3198 0 3356 l6 122 72 0 72 0 6 257 c4 141 7 328 7 415 l0 158
80 0 80 0 0 405 0 405 80 0 80 0 0 123 c0 67 3 179 7 250 l6 127 72 0 72 0 6
122 c4 66 7 177 7 245 l0 123 80 0 80 0 0 165 0 165 80 0 80 0 0 118 c0 66 3
174 7 240 l6 122 79 0 78 0 0 165 0 165 80 0 80 0 0 165 0 165 79 0 79 0 7
165 7 165 79 0 79 0 0 160 0 160 80 0 80 0 0 85 0 85 79 0 79 0 7 165 7 165
79 0 79 0 0 160 0 159 83 3 82 3 3 83 3 82 79 0 80 0 0 160 0 160 80 0 80 0 0
85 0 85 85 0 85 0 0 165 0 165 80 0 80 0 0 80 0 80 80 0 79 0 3 83 3 82 83 3
82 3 0 159 0 159 83 3 82 3 3 77 3 77 77 3 77 3 3 83 3 82 79 0 80 0 0 85 0
85 80 0 80 0 0 80 0 80 85 0 85 0 0 85 0 85 79 0 79 0 7 160 7 160 79 0 79 0
0 80 0 80 80 0 80 0 0 85 0 85 85 0 85 0 0 80 0 80 80 0 80 0 0 80 0 79 83 3
82 3 3 83 3 82 79 0 80 0 0 80 0 80 80 0 80 0 0 79 0 79 160 7 159 7 3 82 3
81 83 3 82 3 0 79 0 80 80 0 80 0 0 80 0 80 85 0 85 0 0 80 0 80 80 0 79 0 3
83 3 82 83 3 82 3 0 79 0 80 160 0 159 0 3 83 3 82 83 3 82 3 0 79 0 80 80 0
80 0 0 80 0 80 85 0 85 0 0 79 0 79 160 7 160 7 0 79 0 79 85 0 85 0 0 79 0
79 160 7 160 7 0 79 0 79 85 0 85 0 0 80 0 79 83 3 82 3 3 76 3 77 159 7 160
7 0 79 0 79 85 0 85 0 0 80 0 80 160 0 160 0 0 85 0 85 85 0 85 0 0 80 0 80
160 0 160 0 0 79 0 79 165 7 165 7 0 79 0 79 85 0 85 0 0 80 0 80 160 0 160 0
0 79 0 79 165 7 165 7 0 79 0 79 165 0 165 0 0 79 0 79 160 7 159 7 3 77 3 76
163 3 162 2 0 79 0 79 165 7 164 7 3 77 3 76 163 3 162 2 0 80 0 80 165 0 165
0 0 80 0 80 163 2 162 3 3 76 3 77 159 7 160 7 0 79 0 79 245 0 245 0 0 79 0
79 165 7 165 7 0 73 0 72 122 6 c66 4 177 7 245 7 l123 0 0 80 0 80 165 0 165
0 0 78 0 79 128 6 c70 4 180 7 245 7 l117 0 0 80 0 80 245 0 245 0 0 80 0 80
123 0 c68 0 178 3 245 7 l121 6 3 76 3 76 248 3 247 2 0 80 0 80 245 0 245 0
0 79 0 79 325 7 325 7 0 79 0 79 250 0 250 0 0 80 0 80 198 0 c108 0 254 3
325 7 l127 6 0 72 0 72 122 6 c66 4 215 7 330 7 l208 0 0 80 0 80 405 0 405 0
0 79 0 79 330 7 330 7 0 79 0 79 325 0 325 0 0 80 0 80 373 0 c206 0 429 3
495 7 l122 6 0 72 0 72 488 6 c268 4 673 7 900 7 l412 0 0 80 0 80 575 0 575
0 0 78 0 79 368 6 c202 4 458 7 570 7 l202 0 0 73 0 74 122 6 c66 4 471 7 900
7 l778 0 0 80 0 80 2545 0 2545 0 0 -80z"/>
<path d="M42930 35700 l0 -80 -208 0 c-115 0 -264 -3 -330 -7 l-122 -6 0 -72
0 -72 -122 -6 c-66 -4 -177 -7 -245 -7 l-123 0 0 -80 0 -80 -85 0 -85 0 0 -80
0 -80 -80 0 -80 0 0 -79 0 -79 -159 -7 -159 -7 -7 -159 -7 -159 -79 0 -79 0 0
-85 0 -85 -79 0 -79 0 -7 -165 -7 -165 -73 0 -72 0 -6 -122 c-4 -66 -7 -251
-7 -410 l0 -288 -80 0 -80 0 0 -325 0 -325 80 0 80 0 0 -282 c0 -156 3 -340 7
-410 l6 -127 76 -3 76 -3 3 -162 2 -163 80 0 80 0 0 -85 0 -85 79 0 79 0 7
-160 7 -160 79 0 79 0 0 -80 0 -80 80 0 79 0 3 -82 3 -83 158 -3 157 -3 0 -78
0 -79 165 -7 165 -7 0 -73 0 -72 128 -6 c70 -4 218 -7 330 -7 l202 0 0 -80 0
-80 8360 0 8360 0 0 -79 0 -79 159 -7 159 -7 7 -159 7 -159 73 0 73 0 7 -177
c5 -98 5 -1334 1 -2748 -3 -1413 -6 -3732 -6 -5152 l0 -2583 -75 0 -75 0 0
-815 0 -815 75 0 75 0 0 -1267 c0 -698 3 -1656 7 -2130 l6 -863 79 0 78 0 0
-245 0 -245 80 0 80 0 0 -165 0 -165 80 0 79 0 3 -82 3 -83 83 -3 82 -3 0 -79
0 -80 80 0 80 0 0 -80 0 -80 85 0 85 0 0 -80 0 -79 83 -3 82 -3 3 -77 3 -76
159 -7 160 -8 0 -78 0 -79 165 0 165 0 0 -78 0 -79 242 -6 c313 -9 1983 -9
2296 0 l242 6 0 79 0 78 165 0 165 0 0 79 0 79 165 7 165 7 0 79 0 79 85 0 85
0 0 80 0 80 160 0 160 0 0 85 0 85 80 0 80 0 0 80 0 80 79 0 79 0 7 165 7 165
79 0 79 0 0 128 c0 70 3 178 7 240 l6 112 72 0 72 0 6 257 c4 141 7 328 7 415
l0 158 73 0 74 0 6 242 c9 314 9 19457 0 19616 l-6 122 -72 0 -72 0 -6 128
c-4 70 -7 180 -7 245 l0 117 -80 0 -80 0 0 165 0 165 -80 0 -79 0 -3 83 -3 82
-82 3 -83 3 0 79 0 80 -80 0 -80 0 0 79 0 79 -160 7 -159 7 -3 77 -3 76 -82 3
-83 3 0 79 0 80 -165 0 -165 0 0 78 0 79 -127 6 c-71 4 -291 7 -490 7 l-363 0
0 80 0 80 -10485 0 -10485 0 0 -80z"/>
<path d="M34413 35613 l-162 -3 -3 -78 -3 -77 -242 -3 -243 -2 0 -80 0 -79
-87 -3 -88 -3 -3 -76 -3 -77 -164 -7 -165 -7 0 -73 0 -73 -160 -7 -160 -8 0
-78 0 -79 -80 0 -79 0 -3 -82 -3 -83 -77 -3 -78 -3 0 -79 0 -80 -85 0 -85 0 0
-160 0 -159 -82 -3 -83 -3 -3 -82 -3 -83 -73 0 -74 0 -7 -165 -7 -165 -78 0
-77 0 -6 -439 c-3 -241 -3 -684 0 -985 l6 -546 78 0 79 0 2 -162 3 -163 77 -3
76 -3 7 -159 8 -160 78 0 79 0 0 -85 0 -85 80 0 80 0 0 -80 0 -80 80 0 80 0 0
-80 0 -80 85 0 85 0 0 -85 0 -85 85 0 85 0 0 -80 0 -80 80 0 80 0 0 -80 0 -80
165 0 165 0 0 -78 0 -79 122 -6 c66 -4 177 -7 245 -7 l123 0 0 -79 0 -78 613
-5 c336 -3 888 -3 1225 0 l612 5 0 78 0 79 168 2 167 3 3 77 3 76 159 7 160 8
0 78 0 79 85 0 85 0 0 79 0 79 160 7 160 7 0 79 0 79 80 0 79 0 3 83 3 82 83
3 82 3 0 159 0 160 80 0 79 0 3 83 3 82 77 3 76 3 7 159 8 160 78 0 79 0 0
203 c0 112 3 259 7 325 l6 122 74 0 73 0 0 495 0 495 -73 0 -74 0 -6 122 c-4
66 -7 177 -7 245 l0 123 -80 0 -80 0 0 165 0 165 -79 0 -79 0 -7 160 -7 160
-79 0 -79 0 0 85 0 85 -80 0 -79 0 -3 83 -3 82 -82 3 -83 3 0 79 0 80 -80 0
-80 0 0 80 0 80 -85 0 -85 0 0 79 0 79 -165 7 -165 7 0 73 0 73 -160 7 -160 8
0 78 0 79 -123 0 c-68 0 -179 3 -245 7 l-122 6 0 72 0 72 -247 6 c-234 7
-1198 6 -1550 0z"/>
<path d="M33910 28160 l0 -80 -325 0 -325 0 0 -79 0 -79 -165 -7 -165 -7 0
-79 0 -79 -80 0 -80 0 0 -80 0 -80 -85 0 -85 0 0 -80 0 -80 -80 0 -80 0 0 -85
0 -85 -79 0 -79 0 -7 -160 -7 -159 -77 -3 -76 -3 -3 -247 -2 -248 -80 0 -80 0
0 -6635 0 -6635 80 0 80 0 0 -288 c0 -159 3 -344 7 -410 l6 -122 72 0 73 0 7
-165 7 -165 79 0 79 0 0 -80 0 -80 80 0 79 0 3 -82 3 -83 83 -3 82 -3 0 -79 0
-80 80 0 80 0 0 -80 0 -80 85 0 85 0 0 -78 0 -79 122 -6 c66 -4 177 -7 245 -7
l123 0 0 -80 0 -80 490 0 490 0 0 -80 0 -80 660 0 660 0 0 80 0 80 570 0 570
0 0 80 0 80 118 0 c64 0 174 3 245 7 l127 6 0 79 0 78 80 0 80 0 0 80 0 80 85
0 85 0 0 80 0 80 80 0 80 0 0 85 0 85 85 0 85 0 0 80 0 79 78 3 77 3 3 163 2
162 80 0 80 0 0 283 c0 155 3 339 7 410 l6 127 72 0 73 0 7 2788 c4 1533 5
4225 1 5982 -3 1757 -6 3524 -6 3927 l0 732 -77 3 -78 3 -3 243 -2 242 -80 0
-80 0 0 85 0 85 -80 0 -79 0 -3 83 -3 82 -82 3 -83 3 0 79 0 80 -80 0 -80 0 0
80 0 79 -82 3 -83 3 -3 76 -3 77 -159 7 -160 7 0 79 0 79 -250 0 -250 0 0 80
0 80 -1475 0 -1475 0 0 -80z"/>
<path d="M48170 28000 l0 -80 -123 0 c-68 0 -178 -3 -245 -7 l-121 -6 -3 -76
-3 -76 -162 -3 -163 -2 0 -80 0 -80 -162 -2 -163 -3 -3 -82 -3 -83 -79 0 -80
0 0 -80 0 -80 -85 0 -85 0 0 -80 0 -80 -80 0 -80 0 0 -85 0 -85 -80 0 -80 0 0
-117 c0 -65 -3 -175 -7 -245 l-6 -128 -72 0 -72 0 -6 -122 c-9 -159 -9 -12108
0 -13061 l6 -737 72 0 73 0 7 -330 7 -330 79 0 79 0 0 -160 0 -160 80 0 80 0
0 -85 0 -85 85 0 85 0 0 -85 0 -85 80 0 80 0 0 -80 0 -80 85 0 85 0 0 -80 0
-80 163 -2 162 -3 3 -76 3 -76 121 -6 c67 -4 174 -7 240 -7 l118 0 0 -80 0
-80 208 0 c115 0 264 -3 330 -7 l122 -6 0 -74 0 -73 820 0 820 0 0 73 0 74
122 6 c66 4 215 7 330 7 l208 0 0 80 0 80 118 0 c66 0 174 3 240 7 l122 6 0
72 0 73 165 7 165 7 0 79 0 79 85 0 85 0 0 80 0 80 80 0 79 0 3 83 3 82 83 3
82 3 0 79 0 80 80 0 80 0 0 85 0 85 80 0 80 0 0 123 c0 68 3 179 7 245 l6 122
72 0 72 0 6 488 c9 635 9 13088 0 13560 l-6 361 -76 3 -76 3 -3 163 -2 162
-80 0 -80 0 0 85 0 85 -80 0 -80 0 0 80 0 80 -85 0 -85 0 0 80 0 80 -80 0 -79
0 -3 83 -3 82 -162 3 -163 2 0 79 0 79 -165 7 -165 7 0 73 0 72 -122 6 c-66 4
-177 7 -245 7 l-123 0 0 80 0 80 -1310 0 -1310 0 0 -80z"/>
<path d="M171708 33973 l-168 -3 0 -74 0 -73 -247 -6 c-137 -4 -393 -7 -570
-7 l-323 0 0 -80 0 -80 -330 0 -330 0 0 -80 0 -80 -123 0 c-68 0 -179 -3 -245
-7 l-122 -6 0 -72 0 -72 -122 -6 c-66 -4 -177 -7 -245 -7 l-123 0 0 -80 0 -80
-165 0 -165 0 0 -79 0 -79 -165 -7 -165 -7 0 -79 0 -79 -165 0 -165 0 0 -79 0
-79 -160 -7 -159 -7 -3 -77 -3 -76 -82 -3 -83 -3 0 -79 0 -80 -85 0 -85 0 0
-79 0 -79 -160 -7 -160 -7 0 -79 0 -79 -80 0 -80 0 0 -80 0 -80 -85 0 -85 0 0
-85 0 -85 -80 0 -80 0 0 -80 0 -80 -85 0 -85 0 0 -85 0 -85 -80 0 -80 0 0 -80
0 -80 -79 0 -79 0 -7 -160 -7 -160 -79 0 -79 0 0 -85 0 -85 -79 0 -78 0 -8
-160 -7 -159 -76 -3 -77 -3 -3 -82 -3 -83 -79 0 -80 0 0 -165 0 -165 -79 0
-78 0 -8 -160 -7 -159 -76 -3 -77 -3 -3 -167 -2 -168 -80 0 -80 0 0 -240 0
-240 -78 0 -79 0 -6 -127 c-4 -71 -7 -183 -7 -250 l0 -123 -80 0 -80 0 0 -325
0 -325 -80 0 -80 0 0 -327 c0 -181 -3 -439 -7 -575 l-6 -248 -72 0 -72 0 -6
-247 c-9 -320 -9 -1532 0 -2005 l6 -368 72 0 72 0 6 -127 c4 -71 7 -291 7
-490 l0 -363 80 0 80 0 0 -330 0 -330 80 0 80 0 0 -117 c0 -65 3 -175 7 -245
l6 -128 72 0 72 0 6 -122 c4 -66 7 -177 7 -245 l0 -123 80 0 80 0 0 -165 0
-165 79 0 79 0 7 -165 7 -165 79 0 79 0 0 -165 0 -165 79 0 79 0 7 -160 7
-160 79 0 79 0 0 -85 0 -85 79 0 79 0 7 -160 7 -160 79 0 79 0 0 -85 0 -85 80
0 80 0 0 -80 0 -80 80 0 79 0 3 -82 3 -83 83 -3 82 -3 0 -79 0 -80 80 0 80 0
0 -80 0 -80 80 0 79 0 3 -82 3 -83 83 -3 82 -3 0 -79 0 -80 85 0 85 0 0 -79 0
-79 160 -7 160 -7 0 -79 0 -79 85 0 85 0 0 -80 0 -80 160 0 159 0 3 -82 3 -83
163 -3 162 -2 0 -80 0 -80 160 0 160 0 0 -79 0 -79 165 -7 164 -7 3 -77 3 -76
243 -3 242 -2 0 -80 0 -80 248 -2 247 -3 3 -76 3 -77 329 -7 330 -7 0 -79 0
-79 570 0 570 0 0 -80 0 -80 1225 0 1225 0 0 80 0 80 453 0 c250 0 509 3 575
7 l122 6 0 72 0 73 330 7 330 7 0 79 0 79 245 0 245 0 0 80 0 80 123 0 c68 0
179 3 245 7 l122 6 0 72 0 73 165 7 165 7 0 79 0 79 165 0 165 0 0 79 0 79
165 7 165 7 0 79 0 79 80 0 80 0 0 80 0 80 165 0 165 0 0 85 0 85 80 0 80 0 0
80 0 80 160 0 159 0 3 83 3 82 83 3 82 3 0 79 0 80 80 0 80 0 0 80 0 80 85 0
85 0 0 85 0 85 80 0 80 0 0 80 0 80 85 0 85 0 0 160 0 160 80 0 80 0 0 85 0
85 85 0 85 0 0 85 0 85 80 0 80 0 0 160 0 160 80 0 79 0 3 83 3 82 76 3 77 3
7 164 7 165 79 0 79 0 2 163 3 162 78 3 77 3 0 112 c0 62 3 169 7 240 l6 127
79 0 78 0 0 245 0 245 80 0 80 0 2 248 3 247 76 3 76 3 6 121 c4 67 7 249 7
405 l0 283 80 0 80 0 0 573 c0 314 3 683 7 820 l6 247 74 0 73 0 0 410 0 410
-73 0 -74 0 -6 218 c-4 119 -7 488 -7 820 l0 602 -80 0 -80 0 0 208 c0 115 -3
264 -7 330 l-6 122 -72 0 -72 0 -6 122 c-4 66 -7 213 -7 325 l0 203 -80 0 -80
0 0 245 0 245 -79 0 -79 0 -7 165 -7 165 -79 0 -79 0 0 165 0 165 -80 0 -80 0
-2 163 -3 162 -76 3 -77 3 -7 159 -7 160 -79 0 -79 0 0 165 0 164 -82 3 -83 3
-3 77 -3 77 -77 3 -77 3 -3 83 -3 82 -79 0 -80 0 0 85 0 85 -79 0 -79 0 -7
160 -7 160 -79 0 -79 0 0 80 0 79 -82 3 -83 3 -3 83 -3 82 -79 0 -80 0 0 79 0
78 -160 8 -159 7 -3 76 -3 77 -82 3 -83 3 0 79 0 80 -80 0 -80 0 0 79 0 79
-165 7 -165 7 0 79 0 79 -85 0 -85 0 0 80 0 80 -160 0 -160 0 0 79 0 79 -165
7 -165 7 0 79 0 79 -165 0 -165 0 0 80 0 80 -245 0 -245 0 0 78 0 79 -122 6
c-66 4 -177 7 -245 7 l-123 0 0 80 0 80 -405 0 -405 0 0 80 0 80 -213 0 c-118
0 -376 3 -575 7 l-362 6 0 72 0 72 -127 6 c-121 7 -1649 6 -2005 0z m1955
-3110 l497 -6 0 -79 0 -78 325 0 325 0 0 -80 0 -80 168 -2 167 -3 3 -76 3 -77
164 -7 165 -7 0 -79 0 -79 160 0 160 0 0 -80 0 -79 83 -3 82 -3 3 -77 3 -77
77 -3 77 -3 3 -82 3 -83 79 0 80 0 0 -80 0 -79 83 -3 82 -3 3 -82 3 -83 79 0
80 0 0 -85 0 -85 80 0 80 0 0 -160 0 -160 85 0 85 0 0 -165 0 -165 80 0 80 0
0 -165 0 -165 79 0 79 0 7 -325 7 -324 77 -3 76 -3 3 -492 2 -493 80 0 80 0 0
-1310 0 -1310 -80 0 -80 0 0 -448 c0 -247 -3 -504 -7 -570 l-6 -122 -74 0 -73
0 0 -122 c0 -68 -3 -180 -7 -250 l-6 -128 -72 0 -72 0 -6 -122 c-4 -66 -7
-177 -7 -245 l0 -123 -80 0 -80 0 0 -160 0 -159 -82 -3 -83 -3 -3 -162 -2
-163 -80 0 -80 0 0 -85 0 -85 -80 0 -80 0 0 -80 0 -80 -85 0 -85 0 0 -85 0
-85 -80 0 -80 0 0 -80 0 -80 -85 0 -85 0 0 -80 0 -80 -80 0 -80 0 0 -79 0 -79
-165 -7 -165 -7 0 -79 0 -79 -160 0 -160 0 0 -80 0 -80 -123 0 c-68 0 -179 -3
-245 -7 l-122 -6 0 -72 0 -72 -127 -6 c-71 -4 -219 -7 -330 -7 l-203 0 0 -80
0 -80 -1230 0 -1230 0 0 80 0 80 -208 0 c-115 0 -264 3 -330 7 l-122 6 0 72 0
72 -122 6 c-66 4 -177 7 -245 7 l-123 0 0 80 0 80 -165 0 -165 0 0 79 0 79
-160 7 -160 7 0 79 0 79 -85 0 -85 0 0 79 0 79 -159 7 -159 7 -7 159 -7 159
-79 0 -79 0 0 80 0 80 -80 0 -80 0 0 85 0 85 -79 0 -79 0 -7 160 -7 160 -79 0
-79 0 0 85 0 85 -80 0 -80 0 0 123 c0 68 -3 179 -7 245 l-6 122 -72 0 -72 0
-6 122 c-4 66 -7 179 -7 250 l0 128 -80 0 -80 0 0 490 0 490 -80 0 -80 0 0
1555 0 1555 80 0 80 0 0 490 0 490 80 0 80 0 0 123 c0 68 3 179 7 245 l6 122
72 0 72 0 6 122 c4 66 7 177 7 245 l0 123 79 0 79 0 7 165 7 164 77 3 76 3 3
83 3 82 79 0 80 0 0 80 0 80 79 0 79 0 7 165 7 165 79 0 79 0 0 79 0 79 160 7
160 7 0 79 0 79 85 0 85 0 0 80 0 80 85 0 85 0 0 80 0 80 160 0 160 0 0 78 0
79 122 6 c66 4 177 7 245 7 l123 0 0 80 0 80 328 2 327 3 3 77 3 78 327 3
c790 6 1495 7 1955 0z"/>
<path d="M202838 33973 l-168 -3 0 -74 0 -73 -247 -6 c-137 -4 -393 -7 -570
-7 l-323 0 0 -80 0 -80 -330 0 -330 0 0 -80 0 -80 -123 0 c-68 0 -179 -3 -245
-7 l-122 -6 0 -72 0 -72 -122 -6 c-66 -4 -177 -7 -245 -7 l-123 0 0 -80 0 -80
-165 0 -165 0 0 -79 0 -79 -165 -7 -165 -7 0 -79 0 -79 -165 0 -165 0 0 -79 0
-79 -160 -7 -159 -7 -3 -77 -3 -76 -82 -3 -83 -3 0 -79 0 -80 -85 0 -85 0 0
-79 0 -79 -160 -7 -160 -7 0 -79 0 -79 -80 0 -80 0 0 -80 0 -80 -85 0 -85 0 0
-85 0 -85 -80 0 -80 0 0 -80 0 -80 -85 0 -85 0 0 -85 0 -85 -80 0 -80 0 0 -80
0 -80 -79 0 -79 0 -7 -160 -7 -160 -79 0 -79 0 0 -85 0 -85 -79 0 -78 0 -8
-160 -7 -159 -76 -3 -77 -3 -3 -82 -3 -83 -79 0 -80 0 0 -165 0 -165 -79 0
-78 0 -8 -160 -7 -159 -76 -3 -77 -3 -3 -167 -2 -168 -80 0 -80 0 0 -240 0
-240 -78 0 -79 0 -6 -127 c-4 -71 -7 -183 -7 -250 l0 -123 -80 0 -80 0 0 -325
0 -325 -80 0 -80 0 0 -327 c0 -181 -3 -439 -7 -575 l-6 -248 -72 0 -72 0 -6
-127 c-9 -167 -9 -1653 0 -2125 l6 -368 72 0 72 0 6 -127 c4 -71 7 -291 7
-490 l0 -363 80 0 80 0 0 -330 0 -330 80 0 80 0 0 -117 c0 -65 3 -175 7 -245
l6 -128 72 0 72 0 6 -122 c4 -66 7 -177 7 -245 l0 -123 80 0 80 0 0 -165 0
-165 79 0 79 0 7 -165 7 -165 79 0 79 0 0 -165 0 -165 79 0 79 0 7 -160 7
-160 79 0 79 0 0 -85 0 -85 79 0 79 0 7 -160 7 -159 77 -3 76 -3 3 -82 3 -83
79 0 80 0 0 -80 0 -80 80 0 79 0 3 -82 3 -83 83 -3 82 -3 0 -79 0 -80 80 0 80
0 0 -80 0 -80 80 0 79 0 3 -82 3 -83 83 -3 82 -3 0 -79 0 -80 85 0 85 0 0 -79
0 -79 160 -7 160 -7 0 -79 0 -79 85 0 85 0 0 -80 0 -80 160 0 160 0 0 -85 0
-85 160 0 160 0 0 -80 0 -80 165 0 165 0 0 -79 0 -79 165 -7 164 -7 3 -77 3
-76 243 -3 242 -2 0 -80 0 -80 248 -2 247 -3 3 -76 3 -77 324 -7 324 -7 3 -77
3 -76 573 -3 572 -2 0 -80 0 -80 1225 0 1225 0 0 80 0 80 453 0 c250 0 509 3
575 7 l122 6 0 72 0 73 330 7 330 7 0 79 0 79 245 0 245 0 0 80 0 80 123 0
c68 0 179 3 245 7 l122 6 0 72 0 73 165 7 165 7 0 79 0 79 165 0 165 0 0 79 0
79 165 7 165 7 0 79 0 79 80 0 80 0 0 80 0 80 165 0 165 0 0 85 0 85 80 0 80
0 0 80 0 80 160 0 159 0 3 83 3 82 83 3 82 3 0 79 0 80 80 0 80 0 0 80 0 80
85 0 85 0 0 85 0 85 80 0 80 0 0 80 0 80 79 0 79 0 7 160 7 160 79 0 79 0 0
85 0 85 80 0 79 0 3 83 3 82 83 3 82 3 0 159 0 160 80 0 79 0 3 83 3 82 76 3
77 3 7 164 7 165 79 0 79 0 2 163 3 162 78 3 77 3 0 112 c0 62 3 169 7 240 l6
127 79 0 78 0 0 245 0 245 80 0 80 0 2 248 3 247 76 3 76 3 6 121 c4 67 7 249
7 405 l0 283 80 0 80 0 0 820 0 820 80 0 80 0 0 410 0 410 -80 0 -80 0 0 820
0 820 -80 0 -80 0 0 208 c0 115 -3 264 -7 330 l-6 122 -72 0 -72 0 -6 122 c-4
66 -7 213 -7 325 l0 203 -80 0 -80 0 0 245 0 245 -79 0 -79 0 -7 165 -7 165
-79 0 -79 0 0 165 0 165 -80 0 -80 0 -2 163 -3 162 -76 3 -77 3 -7 159 -7 160
-79 0 -79 0 0 165 0 165 -85 0 -85 0 0 80 0 80 -80 0 -80 0 0 85 0 85 -80 0
-79 0 -3 83 -3 82 -77 3 -76 3 -7 159 -8 160 -78 0 -79 0 0 80 0 79 -82 3 -83
3 -3 83 -3 82 -79 0 -80 0 0 79 0 78 -160 8 -159 7 -3 76 -3 77 -82 3 -83 3 0
79 0 80 -80 0 -80 0 0 79 0 79 -165 7 -165 7 0 79 0 79 -85 0 -85 0 0 80 0 80
-160 0 -160 0 0 79 0 79 -165 7 -165 7 0 79 0 79 -165 0 -165 0 0 80 0 80
-245 0 -245 0 0 78 0 79 -122 6 c-66 4 -177 7 -245 7 l-123 0 0 80 0 80 -410
0 -410 0 0 80 0 80 -208 0 c-115 0 -371 3 -570 7 l-362 6 0 72 0 72 -127 6
c-121 7 -1649 6 -2005 0z m1955 -3110 l497 -6 0 -79 0 -78 325 0 325 0 0 -80
0 -80 168 -2 167 -3 3 -76 3 -77 164 -7 165 -7 0 -79 0 -79 160 0 160 0 0 -80
0 -79 83 -3 82 -3 3 -77 3 -77 77 -3 77 -3 3 -82 3 -83 79 0 80 0 0 -80 0 -79
83 -3 82 -3 3 -82 3 -83 79 0 80 0 0 -85 0 -85 80 0 80 0 0 -160 0 -159 83 -3
82 -3 3 -162 2 -163 80 0 80 0 0 -165 0 -165 80 0 80 0 0 -203 c0 -112 3 -259
7 -325 l6 -122 72 0 72 0 6 -122 c4 -66 7 -289 7 -495 l0 -373 80 0 80 0 0
-1310 0 -1310 -80 0 -80 0 0 -448 c0 -247 -3 -504 -7 -570 l-6 -122 -72 0 -72
0 -6 -127 c-4 -71 -7 -183 -7 -250 l0 -123 -80 0 -80 0 0 -245 0 -245 -79 0
-79 0 -7 -160 -7 -159 -77 -3 -76 -3 -3 -162 -2 -163 -80 0 -80 0 0 -85 0 -85
-80 0 -80 0 0 -80 0 -80 -85 0 -85 0 0 -85 0 -85 -80 0 -80 0 0 -80 0 -80 -85
0 -85 0 0 -80 0 -80 -80 0 -80 0 0 -79 0 -79 -165 -7 -165 -7 0 -79 0 -79
-165 0 -165 0 0 -80 0 -80 -123 0 c-68 0 -179 -3 -245 -7 l-122 -6 0 -72 0
-72 -122 -6 c-66 -4 -213 -7 -325 -7 l-203 0 0 -80 0 -80 -1230 0 -1230 0 0
80 0 80 -208 0 c-115 0 -264 3 -330 7 l-122 6 0 72 0 72 -122 6 c-66 4 -177 7
-245 7 l-123 0 0 80 0 80 -165 0 -165 0 0 79 0 79 -160 7 -160 7 0 79 0 79
-85 0 -85 0 0 79 0 79 -159 7 -159 7 -7 159 -7 159 -79 0 -79 0 0 80 0 80 -80
0 -80 0 0 85 0 85 -79 0 -79 0 -7 160 -7 160 -79 0 -79 0 0 85 0 85 -80 0 -80
0 0 123 c0 68 -3 178 -7 245 l-6 121 -76 3 -76 3 -3 248 -2 247 -80 0 -80 0
-2 488 -3 487 -76 3 -77 3 -4 777 c-2 427 -2 1127 0 1555 l4 777 73 0 72 0 6
122 c4 66 7 287 7 490 l0 368 80 0 80 0 0 245 0 245 78 0 79 0 6 122 c4 66 7
177 7 245 l0 123 79 0 79 0 7 165 7 164 77 3 76 3 3 83 3 82 79 0 80 0 0 80 0
80 79 0 79 0 7 165 7 165 79 0 79 0 0 79 0 79 160 7 160 7 0 79 0 79 85 0 85
0 0 80 0 80 85 0 85 0 0 80 0 80 160 0 160 0 0 78 0 79 122 6 c66 4 177 7 245
7 l123 0 0 80 0 80 328 2 327 3 3 77 3 78 327 3 c790 6 1495 7 1955 0z"/>
<path d="M93720 27915 l0 -5735 80 0 80 0 0 -490 0 -490 80 0 80 0 0 -203 c0
-112 3 -258 7 -325 l6 -121 76 -3 76 -3 3 -167 2 -168 80 0 80 0 0 -127 c0
-71 3 -178 7 -240 l6 -112 76 -3 76 -3 3 -82 3 -83 79 0 80 0 0 -165 0 -165
80 0 80 0 0 -80 0 -79 83 -3 82 -3 3 -157 3 -158 79 0 80 0 0 -85 0 -85 85 0
85 0 0 -80 0 -80 80 0 80 0 0 -85 0 -85 160 0 159 0 3 -82 3 -83 83 -3 82 -3
0 -79 0 -80 85 0 85 0 0 -80 0 -80 160 0 159 0 3 -82 3 -83 163 -3 162 -2 0
-80 0 -80 165 0 165 0 0 -80 0 -80 118 0 c66 0 173 -3 240 -7 l121 -6 3 -76 3
-76 248 -3 247 -2 0 -80 0 -80 213 0 c116 0 263 -3 325 -7 l112 -6 0 -72 0
-72 368 -6 c202 -4 463 -7 580 -7 l212 0 0 -73 0 -74 122 -6 c157 -9 2034 -9
2201 0 l127 6 0 74 0 73 208 0 c114 0 372 3 575 7 l367 6 0 79 0 78 330 0 330
0 0 80 0 80 243 2 242 3 3 76 3 76 121 6 c67 4 177 7 245 7 l123 0 0 80 0 80
160 0 160 0 0 79 0 79 165 7 165 7 0 79 0 79 160 0 160 0 0 80 0 80 85 0 85 0
0 85 0 85 85 0 85 0 0 80 0 80 80 0 80 0 0 80 0 79 83 3 82 3 3 77 3 77 77 3
77 3 3 83 3 82 79 0 80 0 0 80 0 79 83 3 82 3 3 83 3 82 79 0 80 0 0 85 0 85
80 0 80 0 0 160 0 160 79 0 79 0 7 165 7 165 79 0 79 0 0 165 0 165 80 0 80 0
0 118 c0 64 3 174 7 245 l6 127 79 0 78 0 0 325 0 325 80 0 80 0 2 493 3 492
78 3 77 3 0 5649 0 5650 -1880 0 -1880 0 0 -5528 c0 -3041 -3 -5584 -7 -5650
l-6 -122 -72 0 -72 0 -6 -127 c-4 -71 -7 -219 -7 -330 l0 -203 -80 0 -80 0 0
-245 0 -245 -80 0 -79 0 -3 -82 -3 -83 -76 -3 -77 -3 -7 -159 -7 -160 -79 0
-78 0 -3 -82 -3 -83 -82 -3 -83 -3 0 -79 0 -80 -80 0 -80 0 0 -79 0 -79 -165
-7 -165 -7 0 -79 0 -79 -165 0 -165 0 0 -80 0 -80 -203 0 c-112 0 -259 -3
-325 -7 l-122 -6 0 -72 0 -72 -127 -6 c-166 -9 -2040 -9 -2205 0 l-128 6 0 72
0 72 -122 6 c-66 4 -213 7 -325 7 l-203 0 0 80 0 80 -165 0 -165 0 0 79 0 79
-160 7 -160 7 0 79 0 79 -85 0 -85 0 0 80 0 79 -82 3 -83 3 -3 83 -3 82 -79 0
-80 0 0 160 0 160 -80 0 -80 0 0 85 0 85 -78 0 -79 0 -6 122 c-4 66 -7 177 -7
245 l0 123 -80 0 -80 0 -2 328 -3 327 -76 3 -76 3 -6 616 c-4 339 -7 2881 -7
5650 l0 5033 -1880 0 -1880 0 0 -5735z"/>
<path d="M111570 25295 l0 -8355 4430 0 4430 0 0 80 0 80 443 0 c244 0 499 3
565 7 l122 6 0 72 0 72 128 6 c70 4 182 7 250 7 l122 0 0 80 0 80 245 0 245 0
0 80 0 80 123 0 c68 0 179 3 245 7 l122 6 0 79 0 78 165 0 165 0 0 79 0 79
165 7 165 7 0 79 0 79 80 0 80 0 0 80 0 80 165 0 165 0 0 80 0 80 80 0 79 0 3
83 3 82 83 3 82 3 0 79 0 79 83 3 82 3 3 78 3 77 79 0 80 0 0 80 0 80 80 0 80
0 0 85 0 84 83 3 82 3 3 77 3 77 77 3 77 3 3 83 3 82 79 0 79 0 3 83 3 82 78
3 77 3 0 79 0 80 79 0 79 0 7 160 7 160 78 0 78 0 7 165 7 164 77 3 76 3 3 83
3 82 79 0 80 0 0 240 0 240 79 0 79 0 7 165 7 164 77 3 76 3 3 168 2 167 80 0
80 0 0 203 c0 112 3 259 7 325 l6 122 72 0 72 0 6 122 c4 66 7 213 7 325 l0
203 80 0 80 0 0 575 0 575 80 0 80 0 0 1065 0 1065 -80 0 -80 0 0 575 0 575
-80 0 -80 0 0 203 c0 112 -3 259 -7 325 l-6 122 -79 0 -78 0 0 245 0 245 -80
0 -80 0 0 123 c0 68 -3 178 -7 245 l-6 121 -76 3 -76 3 -3 163 -2 162 -80 0
-80 0 0 165 0 165 -79 0 -79 0 -7 165 -7 165 -79 0 -79 0 0 85 0 85 -80 0 -80
0 0 160 0 160 -85 0 -85 0 0 85 0 85 -80 0 -80 0 0 80 0 80 -80 0 -79 0 -3 83
-3 82 -77 3 -76 3 -7 159 -8 160 -78 0 -79 0 0 80 0 80 -85 0 -85 0 0 79 0 79
-160 7 -160 8 0 78 0 78 -82 3 -83 3 -3 83 -3 82 -79 0 -80 0 0 80 0 80 -165
0 -165 0 0 80 0 80 -80 0 -80 0 0 79 0 79 -165 7 -165 7 0 79 0 79 -165 0
-165 0 0 78 0 79 -122 6 c-66 4 -174 7 -239 7 l-118 0 -3 78 -3 77 -167 3
-168 2 0 80 0 80 -327 2 -328 3 -3 76 -3 76 -241 6 c-133 4 -387 7 -565 7
l-323 0 0 80 0 80 -4430 0 -4430 0 0 -8355z m7870 5325 l0 -80 368 0 c203 0
424 -3 490 -7 l122 -6 0 -72 0 -72 128 -6 c70 -4 180 -7 245 -7 l117 0 0 -80
0 -80 165 0 165 0 0 -79 0 -79 165 -7 165 -7 0 -79 0 -79 80 0 80 0 0 -80 0
-80 85 0 85 0 0 -80 0 -80 80 0 80 0 0 -85 0 -85 85 0 85 0 0 -80 0 -80 80 0
80 0 0 -85 0 -85 80 0 79 0 3 -82 3 -83 77 -3 76 -3 7 -159 8 -160 78 0 79 0
0 -165 0 -165 80 0 80 0 0 -197 c0 -109 3 -255 7 -325 l6 -128 79 0 78 0 0
-410 0 -410 80 0 80 0 0 -1475 0 -1475 -80 0 -80 0 0 -288 c0 -159 -3 -344 -7
-410 l-6 -122 -72 0 -72 0 -6 -122 c-4 -66 -7 -177 -7 -245 l0 -123 -80 0 -80
0 0 -165 0 -165 -80 0 -80 0 -2 -162 -3 -163 -76 -3 -77 -3 -7 -159 -7 -160
-79 0 -79 0 0 -85 0 -85 -80 0 -80 0 0 -80 0 -80 -85 0 -85 0 0 -85 0 -85 -80
0 -80 0 0 -80 0 -80 -85 0 -85 0 0 -79 0 -79 -160 -7 -159 -7 -3 -77 -3 -76
-82 -3 -83 -3 0 -79 0 -80 -245 0 -245 0 0 -78 0 -79 -122 -6 c-66 -4 -177 -7
-245 -7 l-123 0 0 -80 0 -80 -495 0 -495 0 0 -80 0 -80 -1965 0 -1965 0 0 80
0 80 -80 0 -80 0 0 5245 0 5245 80 0 80 0 0 80 0 80 2050 0 2050 0 0 -80z"/>
<path d="M140740 25295 l0 -8355 1880 0 1880 0 0 6798 c0 3739 3 6907 7 7040
l6 242 79 0 78 0 0 -320 0 -320 80 0 80 0 0 -122 c0 -68 3 -180 7 -250 l6
-128 79 0 78 0 0 -245 0 -245 80 0 80 0 2 -247 3 -248 76 -3 76 -3 6 -121 c4
-67 7 -210 7 -320 l0 -198 80 0 80 0 0 -250 0 -250 80 0 80 0 0 -123 c0 -68 3
-179 7 -245 l6 -122 72 0 72 0 6 -122 c4 -66 7 -179 7 -250 l0 -128 80 0 80 0
0 -207 c0 -115 3 -259 7 -320 l6 -113 72 0 72 0 6 -127 c4 -71 7 -183 7 -250
l0 -123 80 0 80 0 0 -245 0 -245 80 0 80 0 0 -245 0 -245 78 0 79 0 6 -127 c4
-71 7 -217 7 -325 l0 -198 80 0 80 0 0 -250 0 -250 80 0 80 0 0 -123 c0 -68 3
-179 7 -245 l6 -122 72 0 72 0 6 -122 c4 -66 7 -177 7 -245 l0 -123 80 0 80 0
0 -212 c0 -117 3 -263 7 -325 l6 -112 76 -3 76 -3 3 -247 2 -248 80 0 80 0 0
-245 0 -245 80 0 80 0 0 -123 c0 -68 3 -179 7 -245 l6 -122 72 0 72 0 6 -122
c4 -66 7 -213 7 -325 l0 -203 80 0 80 0 2 -247 3 -248 76 -3 76 -3 6 -121 c4
-67 7 -177 7 -245 l0 -123 80 0 80 0 0 -245 0 -245 80 0 80 0 2 -247 3 -248
76 -3 76 -3 6 -121 c4 -67 7 -210 7 -320 l0 -198 80 0 80 0 0 -85 0 -85 2210
0 2210 0 0 203 c0 112 3 258 7 325 l6 121 76 3 76 3 3 243 2 242 80 0 80 0 0
250 0 250 80 0 80 0 0 118 c0 64 3 174 7 245 l6 127 72 0 72 0 6 122 c4 66 7
213 7 325 l0 203 80 0 80 0 0 123 c0 68 3 178 7 245 l6 121 76 3 76 3 3 248 2
247 80 0 80 0 0 245 0 245 79 0 79 0 7 325 7 325 79 0 79 0 0 245 0 245 80 0
80 0 2 248 3 247 76 3 76 3 6 121 c4 67 7 177 7 245 l0 123 80 0 80 0 0 325 0
325 80 0 80 0 0 123 c0 68 3 178 7 245 l6 121 76 3 76 3 3 248 2 247 80 0 80
0 0 245 0 245 80 0 80 0 0 118 c0 64 3 174 7 245 l6 127 72 0 72 0 6 122 c4
66 7 213 7 325 l0 203 80 0 80 0 0 128 c0 71 3 184 7 250 l6 122 79 0 78 0 0
245 0 245 80 0 80 0 0 245 0 245 79 0 79 0 7 325 7 325 79 0 79 0 0 245 0 245
80 0 80 0 0 250 0 250 78 0 79 0 6 122 c4 66 7 177 7 245 l0 123 80 0 80 0 0
325 0 325 78 0 79 0 6 -112 c4 -62 7 -3194 7 -6960 l0 -6848 1880 0 1880 0 0
8355 0 8355 -3188 0 -3189 0 -6 -122 c-4 -66 -7 -177 -7 -245 l0 -123 -80 0
-80 0 0 -212 c0 -117 -3 -264 -7 -325 l-6 -113 -72 0 -72 0 -6 -127 c-4 -71
-7 -183 -7 -250 l0 -123 -80 0 -80 0 0 -245 0 -245 -80 0 -80 0 0 -203 c0
-112 -3 -258 -7 -325 l-6 -121 -76 -3 -76 -3 -3 -242 -2 -243 -80 0 -80 0 0
-250 0 -250 -80 0 -80 0 0 -117 c0 -65 -3 -175 -7 -245 l-6 -128 -72 0 -72 0
-6 -122 c-4 -66 -7 -213 -7 -325 l0 -203 -80 0 -80 0 -2 -247 -3 -248 -76 -3
-76 -3 -6 -121 c-4 -67 -7 -177 -7 -245 l0 -123 -80 0 -80 0 0 -325 0 -325
-80 0 -80 0 0 -122 c0 -68 -3 -180 -7 -250 l-6 -128 -72 0 -72 0 -6 -112 c-4
-62 -7 -173 -7 -245 l0 -133 -80 0 -80 0 0 -203 c0 -112 -3 -259 -7 -325 l-6
-122 -72 0 -72 0 -6 -127 c-4 -71 -7 -181 -7 -245 l0 -118 -80 0 -80 0 0 -250
0 -250 -80 0 -80 0 0 -203 c0 -112 -3 -259 -7 -325 l-6 -122 -72 0 -72 0 -6
-122 c-4 -66 -7 -177 -7 -245 l0 -123 -80 0 -80 0 0 -245 0 -245 -79 0 -79 0
-7 -325 -7 -324 -77 -3 -76 -3 -3 -247 -2 -248 -80 0 -80 0 0 -245 0 -245 -78
0 -79 0 -6 -127 c-4 -71 -7 -181 -7 -245 l0 -118 -80 0 -80 0 0 240 0 240 -80
0 -80 0 0 123 c0 67 -3 179 -7 250 l-6 127 -79 0 -78 0 0 245 0 245 -80 0 -80
0 0 250 0 250 -79 0 -79 0 -7 325 -7 325 -79 0 -79 0 0 245 0 245 -80 0 -80 0
-2 248 -3 247 -76 3 -76 3 -6 121 c-4 67 -7 210 -7 320 l0 198 -80 0 -80 0 0
250 0 250 -80 0 -80 0 0 118 c0 64 -3 174 -7 245 l-6 127 -72 0 -72 0 -6 122
c-4 66 -7 213 -7 325 l0 203 -80 0 -80 0 0 128 c0 71 -3 184 -7 250 l-6 122
-72 0 -72 0 -6 122 c-4 66 -7 177 -7 245 l0 123 -80 0 -80 0 0 325 0 325 -80
0 -80 0 0 123 c0 68 -3 178 -7 245 l-6 121 -76 3 -76 3 -3 248 -2 247 -80 0
-80 0 0 203 c0 112 -3 259 -7 325 l-6 122 -72 0 -72 0 -6 128 c-4 70 -7 180
-7 245 l0 117 -80 0 -80 0 0 250 0 250 -80 0 -80 0 -2 243 -3 242 -76 3 -76 3
-6 121 c-4 67 -7 213 -7 325 l0 203 -80 0 -80 0 0 250 0 250 -80 0 -80 0 0
118 c0 64 -3 174 -7 245 l-6 127 -72 0 -72 0 -6 113 c-4 61 -7 172 -7 245 l0
132 -80 0 -80 0 0 80 0 80 -3195 0 -3195 0 0 -8355z"/>
<path d="M188910 26892 c0 -3718 -3 -6814 -7 -6880 l-6 -122 -2699 0 -2698 0
0 -1475 0 -1475 2460 0 2460 0 0 80 0 80 448 0 c247 0 504 3 570 7 l122 6 0
72 0 72 122 6 c66 4 177 7 245 7 l123 0 0 80 0 80 245 0 245 0 0 80 0 80 85 0
85 0 0 79 0 79 165 7 165 7 0 79 0 79 80 0 80 0 0 80 0 79 83 3 82 3 3 83 3
82 79 0 80 0 0 80 0 80 80 0 79 0 3 83 3 82 83 3 82 3 0 84 0 85 80 0 80 0 0
160 0 160 80 0 80 0 0 118 c0 64 3 174 7 245 l6 127 79 0 78 0 0 245 0 245 80
0 80 0 0 368 c0 203 3 424 7 490 l6 122 74 0 73 0 0 6310 0 6310 -1880 0
-1880 0 0 -6758z"/>
<path d="M215282 25378 l3 -8273 1883 -3 1882 -2 0 2870 0 2870 2950 0 2950 0
0 80 0 80 410 0 410 0 0 80 0 80 123 0 c67 0 179 3 250 7 l127 6 0 72 0 72
113 6 c61 4 169 7 240 7 l127 0 0 79 0 79 165 7 165 7 0 79 0 79 85 0 85 0 0
80 0 80 160 0 159 0 3 83 3 82 83 3 82 3 0 79 0 80 80 0 80 0 0 80 0 80 80 0
79 0 3 83 3 82 77 3 76 3 7 159 8 160 78 0 79 0 0 85 0 85 79 0 79 0 7 165 7
165 79 0 79 0 0 240 0 240 79 0 79 0 7 165 7 165 73 0 72 0 6 122 c4 66 7 215
7 330 l0 208 80 0 80 0 0 1475 0 1475 -80 0 -80 0 -2 328 -3 327 -76 3 -76 3
-6 121 c-4 67 -7 174 -7 240 l0 118 -80 0 -80 0 0 165 0 165 -79 0 -79 0 -7
165 -7 165 -79 0 -79 0 0 85 0 85 -80 0 -80 0 0 160 0 159 -82 3 -83 3 -3 83
-3 82 -79 0 -80 0 0 80 0 80 -80 0 -80 0 0 80 0 80 -85 0 -85 0 0 79 0 79
-160 7 -160 7 0 79 0 79 -85 0 -85 0 0 79 0 79 -165 7 -165 7 0 79 0 79 -165
0 -165 0 0 80 0 80 -198 0 c-110 0 -254 3 -320 7 l-122 6 0 72 0 72 -127 6
c-71 4 -257 7 -415 7 l-288 0 0 80 0 80 -4835 0 -4835 0 2 -8272z m8518 5242
l0 -80 133 0 c72 0 182 -3 244 -7 l112 -6 3 -76 3 -76 83 -3 82 -3 0 -79 0
-80 165 0 165 0 0 -85 0 -85 79 0 79 0 7 -160 7 -160 79 0 79 0 0 -165 0 -165
80 0 80 0 0 -325 0 -325 80 0 80 0 0 -490 0 -490 -80 0 -80 0 0 -330 0 -330
-79 0 -79 0 -7 -165 -7 -165 -79 0 -79 0 0 -85 0 -85 -80 0 -80 0 0 -80 0 -80
-80 0 -80 0 0 -80 0 -80 -85 0 -85 0 0 -85 0 -85 -165 0 -165 0 0 -80 0 -80
-245 0 -245 0 0 -80 0 -80 -2295 0 -2295 0 0 2455 0 2455 2375 0 2375 0 0 -80z"/>
<path d="M236740 33570 l0 -80 -74 0 -74 0 -7 -170 -7 -170 -73 0 -72 0 -6
-112 c-4 -62 -7 -170 -7 -240 l0 -128 -80 0 -80 0 0 -245 0 -245 -78 0 -79 0
-6 -122 c-4 -66 -7 -179 -7 -250 l0 -128 -80 0 -80 0 -2 -242 -3 -243 -76 -3
-76 -3 -6 -121 c-4 -67 -7 -177 -7 -245 l0 -123 -80 0 -80 0 0 -245 0 -245
-80 0 -80 0 0 -165 0 -165 -78 0 -79 0 -6 -122 c-4 -66 -7 -177 -7 -245 l0
-123 -80 0 -80 0 0 -245 0 -245 -80 0 -80 0 0 -123 c0 -68 -3 -178 -7 -245
l-6 -121 -76 -3 -76 -3 -3 -242 -2 -243 -80 0 -80 0 0 -245 0 -245 -78 0 -79
0 -6 -127 c-4 -71 -7 -181 -7 -245 l0 -117 -77 -3 -78 -3 -3 -167 -2 -168 -80
0 -80 0 -2 -242 -3 -243 -76 -3 -76 -3 -6 -121 c-4 -67 -7 -177 -7 -245 l0
-123 -80 0 -80 0 0 -245 0 -245 -78 0 -79 0 -6 -127 c-4 -71 -7 -181 -7 -245
l0 -118 -80 0 -80 0 0 -245 0 -245 -80 0 -80 0 0 -123 c0 -68 -3 -178 -7 -245
l-6 -121 -76 -3 -76 -3 -3 -167 -2 -168 -80 0 -80 0 0 -245 0 -245 -80 0 -80
0 0 -117 c0 -65 -3 -175 -7 -245 l-6 -128 -72 0 -72 0 -6 -122 c-4 -66 -7
-177 -7 -245 l0 -123 -80 0 -80 0 -2 -242 -3 -243 -76 -3 -76 -3 -6 -121 c-4
-67 -7 -177 -7 -245 l0 -123 -80 0 -80 0 0 -245 0 -245 -80 0 -80 0 0 -165 0
-165 -78 0 -79 0 -6 -127 c-4 -71 -7 -181 -7 -245 l0 -118 -80 0 -80 0 0 -245
0 -245 -80 0 -80 0 0 -117 c0 -65 -3 -175 -7 -245 l-6 -128 -79 0 -78 0 0
-245 0 -245 -80 0 -80 0 0 -132 c0 -73 -3 -184 -7 -245 l-6 -113 -72 0 -72 0
-6 -127 c-4 -71 -7 -181 -7 -245 l0 -118 -80 0 -80 0 0 -85 0 -85 1885 0 1885
0 0 160 0 160 80 0 80 0 2 168 3 167 76 3 76 3 6 121 c4 67 7 177 7 245 l0
123 80 0 80 0 0 245 0 245 80 0 80 0 0 123 c0 68 3 179 7 245 l6 122 79 0 78
0 0 245 0 245 80 0 80 0 0 245 0 245 79 0 79 0 7 165 7 165 3764 0 3763 0 3
-82 3 -83 76 -3 76 -3 6 -121 c4 -67 7 -177 7 -245 l0 -123 80 0 80 0 0 -245
0 -245 80 0 80 0 0 -117 c0 -65 3 -175 7 -245 l6 -128 79 0 78 0 0 -245 0
-245 80 0 80 0 0 -165 0 -165 80 0 80 0 0 -117 c0 -65 3 -175 7 -245 l6 -128
79 0 78 0 0 -245 0 -245 1885 0 1885 0 0 123 c0 68 -3 179 -7 245 l-6 122 -79
0 -78 0 0 165 0 165 -80 0 -80 0 0 245 0 245 -80 0 -80 0 0 123 c0 68 -3 179
-7 245 l-6 122 -72 0 -72 0 -6 122 c-4 66 -7 177 -7 245 l0 123 -80 0 -80 0 0
123 c0 68 -3 179 -7 245 l-6 122 -72 0 -72 0 -6 122 c-4 66 -7 177 -7 245 l0
123 -80 0 -80 0 0 245 0 245 -80 0 -80 0 -2 168 -3 167 -76 3 -76 3 -6 121
c-4 67 -7 177 -7 245 l0 123 -80 0 -80 0 0 245 0 245 -80 0 -80 0 0 118 c0 64
-3 174 -7 245 l-6 127 -79 0 -78 0 0 245 0 245 -80 0 -80 0 0 123 c0 68 -3
179 -7 245 l-6 122 -72 0 -72 0 -6 122 c-4 66 -7 177 -7 245 l0 123 -80 0 -80
0 0 170 0 170 -80 0 -80 0 0 118 c0 64 -3 174 -7 245 l-6 127 -72 0 -72 0 -6
122 c-4 66 -7 177 -7 245 l0 123 -80 0 -80 0 -2 243 -3 242 -76 3 -76 3 -6
121 c-4 67 -7 177 -7 245 l0 123 -80 0 -80 0 0 245 0 245 -80 0 -80 0 0 118
c0 64 -3 174 -7 245 l-6 127 -79 0 -78 0 0 165 0 165 -80 0 -80 0 0 245 0 245
-80 0 -80 0 0 118 c0 64 -3 174 -7 244 l-6 127 -76 3 -76 3 -3 243 -2 242 -80
0 -80 0 0 123 c0 68 -3 179 -7 245 l-6 122 -72 0 -72 0 -6 128 c-4 70 -7 180
-7 245 l0 117 -80 0 -80 0 0 245 0 245 -80 0 -80 0 -2 168 -3 167 -76 3 -76 3
-6 121 c-4 67 -7 177 -7 245 l0 123 -80 0 -80 0 0 245 0 245 -80 0 -80 0 0
118 c0 64 -3 174 -7 245 l-6 127 -79 0 -78 0 0 245 0 245 -80 0 -80 0 0 123
c0 68 -3 179 -7 245 l-6 122 -79 0 -78 0 0 165 0 165 -2870 0 -2870 0 0 -80z
m2960 -2865 l0 -165 80 0 80 0 0 -245 0 -245 80 0 80 0 0 -123 c0 -68 3 -178
7 -245 l6 -121 76 -3 76 -3 3 -247 2 -248 80 0 80 0 0 -123 c0 -68 3 -179 7
-245 l6 -122 79 0 78 0 0 -165 0 -165 80 0 80 0 0 -245 0 -245 80 0 80 0 0
-117 c0 -65 3 -175 7 -245 l6 -128 79 0 78 0 0 -245 0 -245 80 0 80 0 0 -123
c0 -68 3 -179 7 -245 l6 -122 72 0 72 0 6 -122 c4 -66 7 -177 7 -245 l0 -123
80 0 80 0 0 -245 0 -245 80 0 80 0 2 -167 3 -168 76 -3 76 -3 6 -121 c4 -67 7
-177 7 -245 l0 -123 80 0 80 0 0 -245 0 -245 80 0 80 0 0 -117 c0 -65 3 -175
7 -245 l6 -128 79 0 78 0 0 -80 0 -80 -2705 0 -2705 0 0 123 c0 68 3 179 7
245 l6 122 79 0 78 0 0 165 0 165 80 0 80 0 0 245 0 245 80 0 80 0 0 123 c0
68 3 179 7 245 l6 122 72 0 72 0 6 122 c4 66 7 177 7 245 l0 123 80 0 80 0 0
245 0 245 78 0 79 0 6 128 c4 70 7 180 7 245 l0 117 80 0 80 0 0 245 0 245 80
0 80 0 2 168 3 167 76 3 76 3 6 121 c4 67 7 177 7 245 l0 123 80 0 80 0 0 245
0 245 80 0 80 0 0 118 c0 64 3 174 7 245 l6 127 79 0 78 0 0 245 0 245 80 0
80 0 0 123 c0 68 3 179 7 245 l6 122 72 0 72 0 6 122 c4 66 7 177 7 245 l0
123 80 0 80 0 0 170 0 170 80 0 80 0 0 80 0 80 85 0 85 0 0 -165z"/>
<path d="M250510 25295 l0 -8355 1805 0 1805 0 0 3440 0 3440 75 0 75 0 0 80
0 80 3775 0 3775 0 0 -3520 0 -3520 1880 0 1880 0 0 8355 0 8355 -1880 0
-1880 0 0 -3360 0 -3360 -3728 0 c-2051 0 -3784 3 -3850 7 l-122 6 0 3232 c0
1778 -3 3287 -7 3353 l-6 122 -1799 0 -1798 0 0 -8355z"/>
<path d="M268530 32175 l0 -1475 1554 0 1554 0 6 -172 c4 -95 6 -2490 4 -5323
l-3 -5150 -77 -3 -78 -3 0 -79 0 -80 -1477 -2 -1478 -3 -3 -1472 -2 -1473
4920 0 4920 0 0 1475 0 1475 -1473 0 -1474 0 -6 122 c-4 66 -7 2499 -7 5405
l0 5283 1480 0 1480 0 0 1475 0 1475 -4920 0 -4920 0 0 -1475z"/>
<path d="M280820 32015 l0 -1475 2705 0 2705 0 0 -6800 0 -6800 1885 0 1885 0
0 6800 0 6800 2705 0 2705 0 -2 1473 -3 1472 -7292 3 -7293 2 0 -1475z"/>
<path d="M128780 18580 l0 -1640 1800 0 1800 0 0 1640 0 1640 -1800 0 -1800 0
0 -1640z"/>
</g>
</svg>
