<svg width="34" height="34" viewBox="0 0 34 34" fill="none" xmlns="http://www.w3.org/2000/svg">
<mask id="mask0_120_158" style="mask-type:luminance" maskUnits="userSpaceOnUse" x="0" y="0" width="34" height="34">
<path d="M2.75 4.25C2.75 3.65326 2.98705 3.08097 3.40901 2.65901C3.83097 2.23705 4.40326 2 5 2H23C23.5967 2 24.169 2.23705 24.591 2.65901C25.0129 3.08097 25.25 3.65326 25.25 4.25V32H5C4.40326 32 3.83097 31.7629 3.40901 31.341C2.98705 30.919 2.75 30.3467 2.75 29.75V4.25Z" fill="white" stroke="white" stroke-width="4" stroke-linejoin="round"/>
<path d="M25.25 17C25.25 16.6022 25.408 16.2206 25.6893 15.9393C25.9706 15.658 26.3522 15.5 26.75 15.5H29.75C30.1478 15.5 30.5294 15.658 30.8107 15.9393C31.092 16.2206 31.25 16.6022 31.25 17V29.75C31.25 30.3467 31.0129 30.919 30.591 31.341C30.169 31.7629 29.5967 32 29 32H25.25V17Z" stroke="white" stroke-width="4" stroke-linejoin="round"/>
<path d="M7.25 8H13.25M7.25 13.25H16.25" stroke="black" stroke-width="4" stroke-linecap="round" stroke-linejoin="round"/>
</mask>
<g mask="url(#mask0_120_158)">
<path d="M-1 -1H35V35H-1V-1Z" fill="#4B4B4B"/>
</g>
</svg>
