<?xml version="1.0" standalone="no"?>
<!DOCTYPE svg PUBLIC "-//W3C//DTD SVG 20010904//EN"
 "http://www.w3.org/TR/2001/REC-SVG-20010904/DTD/svg10.dtd">
<svg version="1.0" xmlns="http://www.w3.org/2000/svg"
 width="512.000000pt" height="512.000000pt" viewBox="0 0 512.000000 512.000000"
 preserveAspectRatio="xMidYMid meet">

<g transform="translate(0.000000,512.000000) scale(0.100000,-0.100000)"
fill="#000000" stroke="none">
<path d="M348 4865 c-98 -36 -158 -124 -158 -229 0 -72 23 -127 71 -173 36
-34 95 -63 129 -63 l20 0 0 -1290 0 -1291 25 -24 24 -25 2139 0 2139 0 24 26
24 26 3 1282 2 1282 54 17 c57 18 114 66 143 120 13 23 18 56 18 119 0 80 -2
89 -30 129 -35 50 -82 84 -134 99 -24 6 -794 10 -2246 9 -1850 0 -2216 -3
-2247 -14z m4282 -1710 l0 -1235 -2030 0 -2030 0 0 1235 0 1235 2030 0 2030 0
0 -1235z"/>
<path d="M3791 4221 c-26 -26 -27 -71 -3 -99 9 -11 50 -30 91 -42 40 -12 70
-25 65 -30 -5 -4 -178 -122 -384 -261 -206 -138 -387 -263 -402 -277 -36 -33
-37 -74 -3 -107 28 -29 45 -31 85 -10 15 8 194 123 396 254 203 132 369 239
371 237 1 -1 -2 -18 -7 -37 -25 -88 -1 -149 59 -149 60 0 78 31 121 200 63
248 64 245 -130 296 -182 48 -231 53 -259 25z"/>
<path d="M925 4125 c-30 -30 -32 -64 -4 -99 l20 -26 1014 0 1014 0 20 26 c28
35 26 69 -4 99 l-24 25 -1006 0 -1006 0 -24 -25z"/>
<path d="M921 3734 c-28 -35 -26 -69 4 -99 l24 -25 1005 0 c552 0 1012 3 1021
6 8 4 23 20 31 36 13 25 13 35 3 59 -6 17 -20 34 -30 39 -11 6 -400 10 -1028
10 l-1010 0 -20 -26z"/>
<path d="M4195 3615 l-25 -24 0 -560 0 -560 26 -20 c35 -28 69 -26 99 4 l25
24 0 553 c-1 584 0 571 -47 596 -32 18 -51 15 -78 -13z"/>
<path d="M2299 3429 c-245 -36 -461 -212 -545 -443 -96 -267 -4 -584 219 -752
131 -98 265 -144 422 -144 396 0 694 316 672 714 -9 172 -66 302 -187 425
-106 108 -237 174 -400 200 -73 12 -101 12 -181 0z m366 -219 c103 -59 204
-186 233 -292 10 -37 10 -37 -21 -42 -72 -11 -360 -36 -364 -32 -4 4 68 340
82 384 6 17 11 16 70 -18z"/>
<path d="M3725 3385 l-25 -24 0 -435 c0 -302 3 -443 11 -460 17 -36 65 -54 98
-35 51 29 51 32 49 496 l-3 431 -24 26 c-32 34 -74 34 -106 1z"/>
<path d="M1399 3380 c-8 -5 -67 -66 -129 -135 l-113 -127 -47 51 c-56 61 -94
68 -137 25 -35 -35 -26 -72 36 -143 88 -101 117 -124 152 -123 18 0 38 7 44
14 146 155 305 344 305 363 0 13 -12 37 -26 54 -26 31 -55 38 -85 21z"/>
<path d="M3259 3174 l-24 -26 0 -340 0 -340 28 -24 c36 -31 68 -30 101 2 l26
27 0 339 0 339 -25 24 c-32 33 -74 33 -106 -1z"/>
<path d="M913 2756 l-28 -24 0 -292 0 -292 28 -24 28 -24 274 0 c290 0 314 3
334 47 15 33 15 553 0 586 -20 44 -44 47 -334 47 l-274 0 -28 -24z"/>
<path d="M3280 2247 c-32 -16 -47 -58 -34 -94 18 -52 22 -53 536 -53 l476 0
31 26 c21 18 31 35 31 54 0 19 -10 36 -31 54 l-31 26 -476 0 c-363 0 -483 -3
-502 -13z"/>
<path d="M360 1444 c-109 -29 -199 -106 -248 -212 l-27 -57 -3 -439 -3 -439
22 -23 22 -24 537 0 537 0 22 24 22 23 -3 434 -3 434 -31 65 c-52 109 -143
184 -259 214 -82 22 -504 22 -585 0z"/>
<path d="M2905 1446 c-153 -39 -263 -161 -285 -317 -14 -94 -13 -788 1 -828 6
-17 19 -36 29 -41 12 -6 222 -10 548 -10 507 0 531 1 553 19 l24 19 0 434 c0
430 0 433 -23 490 -34 84 -107 160 -200 205 l-76 38 -260 2 c-185 1 -276 -2
-311 -11z"/>
<path d="M4160 1444 c-107 -29 -200 -109 -249 -213 l-26 -56 -3 -438 -3 -437
25 -25 25 -25 536 0 c522 0 535 0 555 20 19 19 20 33 20 445 0 395 -1 429 -19
480 -38 108 -129 199 -241 242 -64 24 -537 30 -620 7z"/>
<path d="M1593 1432 c-105 -37 -185 -112 -226 -214 -21 -51 -22 -68 -25 -486
l-3 -433 30 -29 29 -30 526 0 525 0 28 24 28 24 3 389 c2 241 -1 414 -8 457
-20 130 -94 231 -209 285 l-56 26 -295 2 c-264 3 -301 1 -347 -15z"/>
</g>
</svg>
