<?xml version="1.0" standalone="no"?>
<!DOCTYPE svg PUBLIC "-//W3C//DTD SVG 20010904//EN"
 "http://www.w3.org/TR/2001/REC-SVG-20010904/DTD/svg10.dtd">
<svg version="1.0" xmlns="http://www.w3.org/2000/svg"
 width="512.000000pt" height="512.000000pt" viewBox="0 0 512.000000 512.000000"
 preserveAspectRatio="xMidYMid meet">

<g transform="translate(0.000000,512.000000) scale(0.100000,-0.100000)"
fill="#000000" stroke="none">
<path d="M2445 4787 c-95 -44 -124 -170 -58 -248 45 -52 74 -59 263 -59 l171
0 -15 -29 c-58 -111 -283 -367 -440 -500 -288 -244 -694 -463 -1073 -581 -83
-25 -108 -38 -132 -65 -57 -65 -53 -155 8 -216 49 -49 94 -58 181 -35 204 54
624 245 849 385 288 180 591 449 761 675 l75 99 5 -149 c6 -165 14 -191 74
-232 23 -16 47 -22 86 -22 67 0 112 28 140 86 18 37 20 61 20 296 0 140 -3
310 -7 377 -7 137 -20 168 -81 204 -31 18 -60 20 -415 24 -313 3 -387 1 -412
-10z"/>
<path d="M3665 3506 c-96 -31 -162 -88 -204 -176 l-26 -55 -3 -1478 -2 -1478
407 3 408 3 51 27 c76 40 107 70 145 140 l34 63 0 1365 0 1365 -34 63 c-37 69
-79 109 -151 144 -43 22 -57 23 -315 25 -200 2 -280 -1 -310 -11z"/>
<path d="M2223 2862 c-105 -37 -180 -112 -209 -210 -12 -37 -14 -252 -14
-1189 l0 -1143 555 0 555 0 -2 1157 -3 1158 -22 47 c-30 66 -96 133 -162 165
l-56 28 -295 2 c-264 3 -300 1 -347 -15z"/>
<path d="M885 2391 c-90 -22 -172 -90 -215 -176 l-25 -50 0 -805 0 -805 23
-45 c35 -72 75 -114 144 -151 l63 -34 403 -3 402 -3 0 1040 0 1041 -382 -1
c-211 -1 -396 -4 -413 -8z"/>
</g>
</svg>
