<svg width="27" height="20" viewBox="0 0 27 20" fill="none" xmlns="http://www.w3.org/2000/svg">
<path d="M2.09624 0L1.35152 3.95255C1.03051 5.66551 1.29166 7.43056 2.09624 8.97569H5.09095V0H2.09624ZM6.12381 0V6.68981H6.294C6.65785 6.68981 6.95127 6.39468 6.95127 6.03588V0H6.12381ZM7.99 0V6.03588C7.99 6.95602 7.23296 7.70255 6.294 7.70255H6.12381V12.4306H6.99822V8.97569H8.14845C8.14845 8.97569 8.59446 8.09028 8.94657 7.37268C9.22239 6.84028 9.77404 6.49884 10.3844 6.49884H15.0909C15.9712 6.49884 16.6872 7.19907 16.6872 8.06713V13.3623H0L0.620304 17.3264H25.1848L25.801 13.6748L24.5627 0H7.99ZM26.1883 1.35417C25.9008 1.37731 25.6895 1.62616 25.7188 1.90393L25.9712 4.64699C25.9947 4.92477 26.247 5.1331 26.5287 5.10995C26.8162 5.08681 27.0216 4.83218 26.9982 4.5544L26.7517 1.81713C26.7282 1.55671 26.5052 1.35417 26.2411 1.35417H26.1883ZM21.0944 1.35995C22.3679 1.35995 23.3949 2.37269 23.3949 3.62847C23.3949 4.88426 22.3679 5.89699 21.0944 5.89699C19.821 5.89699 18.794 4.88426 18.794 3.62847C18.794 2.37269 19.821 1.35995 21.0944 1.35995ZM21.0944 2.37269C20.3961 2.37269 19.821 2.93981 19.821 3.62847C19.821 4.32292 20.3961 4.88426 21.0944 4.88426C21.7928 4.88426 22.3679 4.32292 22.3679 3.62847C22.3679 2.93981 21.7928 2.37269 21.0944 2.37269ZM21.0944 7.57523C22.6555 7.57523 23.9231 8.83102 23.9231 10.3646C23.9231 11.9039 22.6555 13.1539 21.0944 13.1539C19.5334 13.1539 18.2658 11.9039 18.2658 10.3646C18.2658 8.83102 19.5334 7.57523 21.0944 7.57523ZM21.0944 8.59375C20.1026 8.59375 19.2987 9.38657 19.2987 10.3646C19.2987 11.3426 20.1026 12.1296 21.0944 12.1296C22.0862 12.1296 22.8843 11.3426 22.8843 10.3646C22.8843 9.38657 22.0862 8.59375 21.0944 8.59375ZM3.91783 9.72222V10.7407H5.09682V9.72222H3.91783ZM0.620304 18.4664V20H25.1731V18.4664H0.620304Z" fill="#4B4B4B"/>
</svg>
