<?xml version="1.0" standalone="no"?>
<!DOCTYPE svg PUBLIC "-//W3C//DTD SVG 20010904//EN"
 "http://www.w3.org/TR/2001/REC-SVG-20010904/DTD/svg10.dtd">
<svg version="1.0" xmlns="http://www.w3.org/2000/svg"
 width="512.000000pt" height="512.000000pt" viewBox="0 0 512.000000 512.000000"
 preserveAspectRatio="xMidYMid meet">

<g transform="translate(0.000000,512.000000) scale(0.100000,-0.100000)"
fill="#000000" stroke="none">
<path d="M659 4466 c-61 -17 -133 -68 -169 -118 -63 -86 -61 -53 -58 -954 l3
-819 27 -51 c29 -56 90 -116 143 -141 l34 -16 3 -299 3 -300 33 -29 c46 -41
99 -40 141 2 l31 31 0 297 0 298 39 17 c83 38 152 131 170 230 15 79 15 1522
1 1597 -29 151 -147 257 -295 265 -33 2 -81 -3 -106 -10z"/>
<path d="M3694 4470 c-12 -4 -31 -21 -43 -36 -20 -25 -21 -38 -21 -205 l0
-178 -42 -5 c-24 -3 -117 -13 -208 -21 -91 -9 -417 -45 -725 -81 -893 -104
-1041 -115 -1170 -90 -116 23 -132 21 -171 -18 l-35 -35 3 -415 3 -416 27 -27
c35 -35 75 -36 215 -5 261 57 597 54 904 -8 370 -75 659 -229 739 -396 35 -73
37 -165 7 -285 -51 -196 -135 -350 -257 -470 l-68 -67 -108 -4 c-124 -4 -156
-18 -174 -74 -16 -47 2 -97 43 -123 l32 -21 -1192 0 c-1153 0 -1194 -1 -1243
-19 -69 -26 -114 -63 -155 -124 -47 -73 -58 -135 -53 -312 3 -137 5 -155 29
-206 33 -71 87 -124 158 -158 l56 -26 2315 0 2315 0 56 26 c71 34 125 87 158
158 24 51 26 69 29 206 5 177 -6 239 -53 312 -72 110 -149 143 -333 143 l-127
0 32 20 c39 23 53 48 53 93 0 74 -58 107 -187 107 l-71 0 -26 68 c-62 162
-125 455 -132 622 -5 115 -5 115 35 225 126 349 147 419 164 550 2 17 5 -48 6
-143 1 -186 8 -217 53 -239 49 -25 93 -19 129 16 l29 29 0 575 0 575 -31 31
c-42 42 -95 43 -141 2 l-33 -29 -5 -304 c-3 -166 -7 -289 -8 -272 -4 59 -47
189 -86 259 -25 45 -70 101 -126 156 -71 71 -103 94 -181 133 -51 26 -127 54
-166 63 l-73 17 0 174 c0 191 -7 219 -60 247 -32 17 -54 18 -86 5z"/>
</g>
</svg>
