<svg width="32" height="31" viewBox="0 0 32 31" fill="none" xmlns="http://www.w3.org/2000/svg">
<path d="M28.3578 4.98572L22.875 7.17992L9.375 1.77992L12.66 0.46412C14.1621 -0.136803 15.8379 -0.136803 17.34 0.46412L27.7026 4.60952C27.9374 4.70303 28.158 4.83086 28.3578 4.98572ZM15.0018 10.3281L20.4522 8.14652L6.9522 2.74652L2.2974 4.60952C2.06255 4.70303 1.842 4.82906 1.6422 4.98392L15.0018 10.3281ZM0.6612 6.53372C0.619687 6.72532 0.599166 6.92088 0.6 7.11692V20.8797C0.59991 21.4194 0.761578 21.9468 1.06414 22.3938C1.3667 22.8407 1.79627 23.1867 2.2974 23.3871L12.66 27.5325C12.84 27.6045 13.0218 27.6675 13.2054 27.7215L13.2 27.5001V20.3001C13.2 19.2867 13.5348 18.3507 14.1 17.6001V11.9067L0.6612 6.53372ZM29.4 7.11692V15.8901L29.3244 15.8739C29.1316 14.8415 28.5837 13.909 27.7756 13.2381C26.9676 12.5671 25.9503 12.1999 24.9 12.2001H21.3C20.2497 12.1999 19.2324 12.5671 18.4244 13.2381C17.6163 13.909 17.0684 14.8415 16.8756 15.8739C16.5348 15.9387 16.2096 16.0383 15.9 16.1727V11.9067L29.337 6.53372C29.379 6.72332 29.4 6.91772 29.4 7.11692ZM18.6 17.6001V16.7001C18.6 15.984 18.8845 15.2973 19.3908 14.7909C19.8972 14.2846 20.5839 14.0001 21.3 14.0001H24.9C25.6161 14.0001 26.3028 14.2846 26.8092 14.7909C27.3155 15.2973 27.6 15.984 27.6 16.7001V17.6001H28.5C29.2161 17.6001 29.9028 17.8846 30.4092 18.3909C30.9155 18.8973 31.2 19.584 31.2 20.3001V23.0001H27.6V22.1001C27.6 21.8614 27.5052 21.6325 27.3364 21.4637C27.1676 21.2949 26.9387 21.2001 26.7 21.2001C26.4613 21.2001 26.2324 21.2949 26.0636 21.4637C25.8948 21.6325 25.8 21.8614 25.8 22.1001V23.0001H20.4V22.1001C20.4 21.8614 20.3052 21.6325 20.1364 21.4637C19.9676 21.2949 19.7387 21.2001 19.5 21.2001C19.2613 21.2001 19.0324 21.2949 18.8636 21.4637C18.6948 21.6325 18.6 21.8614 18.6 22.1001V23.0001H15V20.3001C15 19.584 15.2845 18.8973 15.7908 18.3909C16.2972 17.8846 16.9839 17.6001 17.7 17.6001H18.6ZM20.4 16.7001V17.6001H25.8V16.7001C25.8 16.4614 25.7052 16.2325 25.5364 16.0637C25.3676 15.8949 25.1387 15.8001 24.9 15.8001H21.3C21.0613 15.8001 20.8324 15.8949 20.6636 16.0637C20.4948 16.2325 20.4 16.4614 20.4 16.7001ZM27.6 25.7001V24.8001H31.2V27.5001C31.2 28.2162 30.9155 28.903 30.4092 29.4093C29.9028 29.9157 29.2161 30.2001 28.5 30.2001H17.7C16.9839 30.2001 16.2972 29.9157 15.7908 29.4093C15.2845 28.903 15 28.2162 15 27.5001V24.8001H18.6V25.7001C18.6 25.9388 18.6948 26.1677 18.8636 26.3365C19.0324 26.5053 19.2613 26.6001 19.5 26.6001C19.7387 26.6001 19.9676 26.5053 20.1364 26.3365C20.3052 26.1677 20.4 25.9388 20.4 25.7001V24.8001H25.8V25.7001C25.8 25.9388 25.8948 26.1677 26.0636 26.3365C26.2324 26.5053 26.4613 26.6001 26.7 26.6001C26.9387 26.6001 27.1676 26.5053 27.3364 26.3365C27.5052 26.1677 27.6 25.9388 27.6 25.7001Z" fill="#4B4B4B"/>
</svg>
