<?xml version="1.0" standalone="no"?>
<!DOCTYPE svg PUBLIC "-//W3C//DTD SVG 20010904//EN"
 "http://www.w3.org/TR/2001/REC-SVG-20010904/DTD/svg10.dtd">
<svg version="1.0" xmlns="http://www.w3.org/2000/svg"
 width="512.000000pt" height="512.000000pt" viewBox="0 0 512.000000 512.000000"
 preserveAspectRatio="xMidYMid meet">

<g transform="translate(0.000000,512.000000) scale(0.100000,-0.100000)"
fill="#000000" stroke="none">
<path d="M1192 5027 c-6 -7 -13 -64 -14 -126 l-3 -112 -69 -29 -69 -30 -83 80
c-46 44 -91 80 -101 80 -20 0 -223 -200 -223 -219 0 -8 36 -50 80 -95 44 -45
80 -86 80 -90 0 -5 -12 -39 -27 -77 l-27 -69 -112 0 c-89 0 -116 -3 -128 -16
-23 -23 -23 -285 0 -308 12 -13 39 -16 127 -16 l112 0 33 -72 32 -72 -80 -81
c-48 -48 -80 -89 -80 -101 0 -12 39 -59 103 -122 80 -78 108 -100 124 -96 11
3 55 41 98 84 l78 79 36 -18 c20 -10 53 -24 74 -30 l37 -13 0 -118 c0 -108 2
-120 19 -130 11 -5 77 -10 146 -10 69 0 135 5 146 10 17 10 19 22 19 128 l0
118 74 30 74 31 79 -79 c55 -53 88 -78 104 -78 17 0 51 28 121 102 54 57 98
110 98 118 0 8 -37 51 -81 96 l-81 82 26 65 c14 36 26 70 26 76 0 7 40 11 118
11 78 0 122 4 130 12 8 8 12 57 12 154 0 178 4 174 -151 174 l-107 0 -22 60
c-12 33 -27 63 -32 66 -5 3 27 43 71 89 56 57 81 90 81 106 0 31 -185 219
-215 219 -11 0 -54 -35 -100 -80 l-81 -81 -57 26 c-32 14 -64 25 -72 25 -12 0
-15 20 -15 111 0 61 -5 119 -10 130 -10 17 -23 19 -159 19 -110 0 -151 -3
-159 -13z m289 -477 c174 -55 277 -212 267 -405 -5 -105 -44 -190 -118 -259
-163 -152 -406 -151 -560 4 -134 133 -156 333 -57 499 90 151 287 218 468 161z"/>
<path d="M4122 4253 c-17 -3 -22 -9 -18 -21 4 -9 86 -205 183 -434 111 -261
182 -418 191 -418 7 0 40 26 71 58 47 46 60 67 70 110 7 29 10 68 7 87 -11 55
-205 507 -235 545 -44 55 -102 80 -180 79 -36 -1 -76 -4 -89 -6z"/>
<path d="M4605 4206 c-43 -18 -81 -38 -82 -43 -4 -10 163 -412 176 -426 10
-10 146 48 189 80 48 36 84 114 84 183 0 98 -49 175 -137 216 -71 34 -132 31
-230 -10z m195 -142 c18 -18 25 -34 25 -65 0 -112 -164 -120 -181 -8 -5 28 -1
41 20 66 41 49 90 51 136 7z"/>
<path d="M3903 4105 c-108 -79 -123 -96 -123 -144 0 -43 233 -588 265 -620 23
-23 33 -26 88 -24 34 2 101 11 148 20 l86 18 -175 413 c-96 226 -178 412 -181
412 -4 0 -53 -34 -108 -75z"/>
<path d="M3359 3901 c-20 -20 -29 -40 -29 -60 0 -46 284 -710 316 -738 61 -55
164 -5 164 79 0 41 -287 701 -315 726 -39 33 -98 30 -136 -7z"/>
<path d="M3698 3783 c-10 -2 -18 -9 -18 -14 0 -6 35 -91 77 -190 69 -162 78
-179 97 -173 12 3 24 9 28 13 9 8 -145 371 -157 370 -5 -1 -18 -3 -27 -6z"/>
<path d="M2968 3745 c-34 -19 -48 -44 -48 -87 0 -36 277 -697 306 -729 22 -24
71 -33 107 -20 36 14 69 68 63 103 -10 50 -288 693 -310 716 -28 29 -83 37
-118 17z"/>
<path d="M3273 3602 c-8 -5 12 -62 67 -192 76 -177 88 -196 113 -171 11 11
-141 371 -156 371 -7 0 -17 -4 -24 -8z"/>
<path d="M2537 3554 c-32 -31 -41 -71 -27 -110 55 -147 289 -674 306 -691 56
-55 164 -8 164 70 0 53 -273 694 -311 730 -40 37 -96 37 -132 1z"/>
<path d="M2867 3427 c-16 -11 -12 -26 59 -195 43 -100 82 -182 88 -182 40 1
36 18 -40 196 -42 98 -79 182 -83 187 -4 4 -15 1 -24 -6z"/>
<path d="M2163 3403 c-33 -6 -73 -59 -73 -96 0 -18 62 -176 146 -374 156 -366
166 -383 231 -383 46 0 103 54 103 97 -1 15 -67 183 -148 372 -149 348 -162
372 -217 384 -11 2 -30 2 -42 0z"/>
<path d="M2453 3253 c-7 -2 -13 -10 -13 -17 0 -11 145 -354 153 -363 8 -7 37
9 37 21 0 18 -148 361 -157 363 -4 1 -14 -1 -20 -4z"/>
<path d="M1666 3031 c-178 -75 -230 -112 -274 -194 -23 -45 -27 -64 -27 -142
0 -81 3 -95 29 -143 33 -60 76 -101 139 -134 35 -19 57 -23 132 -22 89 0 92 1
247 68 l157 68 -19 46 c-27 68 -209 492 -218 507 -5 10 -44 -3 -166 -54z m69
-235 c33 -22 58 -81 51 -121 -10 -50 -66 -95 -119 -95 -23 0 -53 7 -65 16 -49
34 -67 118 -36 163 41 58 113 74 169 37z"/>
<path d="M2002 3060 c-24 -11 -41 -23 -39 -27 3 -5 37 -84 77 -178 39 -93 75
-173 79 -178 4 -4 29 2 55 14 36 16 46 25 41 37 -44 117 -150 352 -159 352 -6
0 -30 -9 -54 -20z"/>
<path d="M567 1868 l-215 -313 1104 -3 c607 -1 1601 -1 2208 0 l1104 3 -216
313 -216 312 -1777 0 -1777 0 -215 -312z"/>
<path d="M315 1994 c-154 -63 -266 -112 -250 -109 111 18 459 96 464 103 78
112 85 122 74 121 -4 0 -134 -52 -288 -115z"/>
<path d="M4524 2085 c11 -17 31 -47 44 -68 14 -20 34 -40 46 -42 99 -23 460
-94 463 -92 2 2 -120 52 -270 111 -149 60 -279 111 -287 114 -11 5 -11 -1 4
-23z"/>
<path d="M780 795 l0 -655 29 -32 29 -33 1721 0 1721 0 27 28 28 27 3 660 2
660 -1780 0 -1780 0 0 -655z m3104 383 c23 -32 24 -524 2 -554 -14 -19 -39
-19 -1326 -19 -1287 0 -1312 0 -1326 19 -11 16 -14 71 -14 278 0 245 1 259 20
278 20 20 33 20 1324 20 l1305 0 15 -22z"/>
<path d="M1332 903 l3 -188 1225 0 1225 0 3 188 2 187 -1230 0 -1230 0 2 -187z"/>
</g>
</svg>
